<svg width="41" height="42" viewBox="0 0 41 42" fill="none" xmlns="http://www.w3.org/2000/svg">
<path d="M8.29729 3.51674L7.52255 3L6.73699 3.49985C5.5748 4.23933 4.62148 5.27072 3.96768 6.49279C3.31561 7.71159 2.98298 9.07972 3.00067 10.4657V24.0856C2.98339 25.4716 3.31595 26.84 3.96786 28.0592C4.61986 29.2785 5.5697 30.3086 6.72761 31.0487L16.0869 37.1882C17.3945 38.0709 18.9302 38.5428 20.502 38.5428C22.074 38.5428 23.6097 38.0709 24.9174 37.1882L34.2726 31.0489C35.4317 30.3099 36.3826 29.2803 37.0354 28.0607C37.6874 26.8426 38.0204 25.4753 38.0035 24.09V10.4657C38.0212 9.07917 37.6882 7.71048 37.0354 6.49144C36.3807 5.26919 35.4262 4.23796 34.263 3.49919L33.4777 3.00042L32.7037 3.51683L20.5129 11.65L20.5021 11.6428L20.4912 11.65L8.29729 3.51674Z" stroke="#F4D248" stroke-width="5"/>
</svg>
