<svg width="496" height="148" viewBox="0 0 496 148" fill="none" xmlns="http://www.w3.org/2000/svg">
<path d="M3.78424 18.8948H15.7522L26.0482 57.2628H27.6322L37.9282 18.8948H49.8962L37.4002 62.5428H16.2802L3.78424 18.8948ZM88.9951 56.2068C87.8217 58.9642 86.1791 60.9295 84.0671 62.1028C81.9551 63.2175 79.4911 63.7748 76.6751 63.7748C74.0351 63.7748 71.5417 63.2762 69.1951 62.2788C66.9071 61.2815 64.8831 59.8148 63.1231 57.8788C61.3631 55.9428 59.9551 53.5962 58.8991 50.8388C57.9017 48.0815 57.4031 44.9428 57.4031 41.4228V40.0148C57.4031 36.5535 57.9017 33.4442 58.8991 30.6868C59.8964 27.9295 61.2457 25.5828 62.9471 23.6468C64.6484 21.7108 66.6137 20.2442 68.8431 19.2468C71.1311 18.1908 73.5657 17.6628 76.1471 17.6628C79.2564 17.6628 81.7497 18.1908 83.6271 19.2468C85.5631 20.3028 87.0884 21.9455 88.2031 24.1748H89.7871V18.8948H100.875V49.3428C100.875 51.1028 101.667 51.9828 103.251 51.9828H104.923V62.5428H97.3551C95.3604 62.5428 93.7177 61.9562 92.4271 60.7828C91.1951 59.6095 90.5791 58.0842 90.5791 56.2068H88.9951ZM79.1391 53.2148C82.3657 53.2148 84.9471 52.1588 86.8831 50.0468C88.8191 47.8762 89.7871 44.9428 89.7871 41.2468V40.1908C89.7871 36.4948 88.8191 33.5908 86.8831 31.4788C84.9471 29.3082 82.3657 28.2228 79.1391 28.2228C75.9124 28.2228 73.3311 29.3082 71.3951 31.4788C69.4591 33.5908 68.4911 36.4948 68.4911 40.1908V41.2468C68.4911 44.9428 69.4591 47.8762 71.3951 50.0468C73.3311 52.1588 75.9124 53.2148 79.1391 53.2148ZM125.718 62.5428H114.63V18.8948H125.718V25.4068H127.302C128.299 22.9428 129.913 21.0362 132.142 19.6868C134.371 18.3375 136.982 17.6628 139.974 17.6628C142.086 17.6628 144.051 18.0148 145.87 18.7188C147.747 19.3642 149.39 20.3908 150.798 21.7988C152.206 23.2068 153.291 24.9962 154.054 27.1668C154.875 29.3375 155.286 31.9188 155.286 34.9108V62.5428H144.198V37.7268C144.198 34.6175 143.435 32.1828 141.91 30.4228C140.443 28.6042 138.302 27.6948 135.486 27.6948C132.201 27.6948 129.737 28.8095 128.094 31.0388C126.51 33.2095 125.718 36.1428 125.718 39.8388V62.5428ZM199.841 56.2068H198.257C197.787 57.2042 197.201 58.1722 196.497 59.1108C195.851 59.9908 194.971 60.7828 193.857 61.4868C192.801 62.1908 191.51 62.7482 189.985 63.1588C188.518 63.5695 186.729 63.7748 184.617 63.7748C181.918 63.7748 179.395 63.3055 177.049 62.3668C174.761 61.3695 172.737 59.9322 170.977 58.0548C169.275 56.1188 167.926 53.7722 166.929 51.0148C165.99 48.2575 165.521 45.0895 165.521 41.5108V39.9268C165.521 36.4068 166.019 33.2682 167.017 30.5108C168.073 27.7535 169.481 25.4362 171.241 23.5588C173.059 21.6228 175.142 20.1562 177.489 19.1588C179.894 18.1615 182.417 17.6628 185.057 17.6628C188.577 17.6628 191.363 18.3375 193.417 19.6868C195.47 20.9775 197.083 22.8255 198.257 25.2308H199.841V0.942842H210.929V62.5428H199.841V56.2068ZM188.225 53.2148C191.686 53.2148 194.473 52.1295 196.585 49.9588C198.755 47.7295 199.841 44.8255 199.841 41.2468V40.1908C199.841 36.6122 198.755 33.7375 196.585 31.5668C194.473 29.3375 191.686 28.2228 188.225 28.2228C184.763 28.2228 181.947 29.3082 179.777 31.4788C177.665 33.5908 176.609 36.4948 176.609 40.1908V41.2468C176.609 44.9428 177.665 47.8762 179.777 50.0468C181.947 52.1588 184.763 53.2148 188.225 53.2148ZM232.163 44.3268C232.222 45.6175 232.515 46.8202 233.043 47.9348C233.63 48.9908 234.393 49.9295 235.331 50.7508C236.329 51.5135 237.443 52.1295 238.675 52.5988C239.966 53.0095 241.315 53.2148 242.723 53.2148C245.481 53.2148 247.593 52.7455 249.059 51.8068C250.526 50.8095 251.582 49.6362 252.227 48.2868L261.731 53.5668C261.203 54.6815 260.47 55.8548 259.531 57.0868C258.593 58.2602 257.361 59.3455 255.835 60.3428C254.369 61.3402 252.55 62.1615 250.379 62.8068C248.267 63.4522 245.774 63.7748 242.899 63.7748C239.614 63.7748 236.622 63.2468 233.923 62.1908C231.225 61.1348 228.878 59.6095 226.883 57.6148C224.947 55.6202 223.422 53.1855 222.307 50.3108C221.251 47.4362 220.723 44.1802 220.723 40.5428V40.0148C220.723 36.6708 221.281 33.6202 222.395 30.8628C223.569 28.1055 225.153 25.7588 227.147 23.8228C229.142 21.8868 231.459 20.3908 234.099 19.3348C236.798 18.2202 239.673 17.6628 242.723 17.6628C246.478 17.6628 249.705 18.3375 252.403 19.6868C255.102 20.9775 257.331 22.6495 259.091 24.7028C260.851 26.6975 262.142 28.9268 262.963 31.3908C263.785 33.7962 264.195 36.1428 264.195 38.4308V44.3268H232.163ZM242.635 27.6948C239.819 27.6948 237.531 28.4282 235.771 29.8948C234.011 31.3028 232.867 32.9455 232.339 34.8228H252.931C252.579 32.7695 251.465 31.0682 249.587 29.7188C247.769 28.3695 245.451 27.6948 242.635 27.6948ZM274.166 18.8948H292.646V25.2308H294.23C295.052 22.8255 296.43 20.9775 298.366 19.6868C300.361 18.3375 302.737 17.6628 305.494 17.6628C309.836 17.6628 313.326 19.0415 315.966 21.7988C318.606 24.4975 319.926 28.6335 319.926 34.2068V36.1428L308.486 37.1988V35.9668C308.486 33.5615 307.87 31.6548 306.638 30.2468C305.406 28.7802 303.558 28.0468 301.094 28.0468C298.63 28.0468 296.694 28.8975 295.286 30.5988C293.878 32.3002 293.174 34.7348 293.174 37.9028V51.9828H303.206V62.5428H273.11V51.9828H282.086V29.4548H274.166V18.8948Z" fill="#FDF5D3"/>
<path d="M143.288 127.415C143.288 128.588 143.054 129.703 142.584 130.759C142.174 131.756 141.587 132.636 140.824 133.399C140.062 134.103 139.152 134.66 138.096 135.071C137.099 135.54 136.043 135.775 134.928 135.775C133.755 135.775 132.67 135.54 131.672 135.071C130.675 134.66 129.795 134.103 129.032 133.399C128.27 132.636 127.654 131.756 127.184 130.759C126.774 129.703 126.568 128.588 126.568 127.415C126.568 126.242 126.774 125.156 127.184 124.159C127.654 123.103 128.27 122.223 129.032 121.519C129.795 120.756 130.675 120.17 131.672 119.759C132.67 119.29 133.755 119.055 134.928 119.055C136.043 119.055 137.099 119.29 138.096 119.759C139.152 120.17 140.062 120.756 140.824 121.519C141.587 122.223 142.174 123.103 142.584 124.159C143.054 125.156 143.288 126.242 143.288 127.415Z" fill="#F4D248"/>
<path d="M200.075 128.207H198.491C198.022 129.204 197.435 130.172 196.731 131.111C196.086 131.991 195.206 132.783 194.091 133.487C193.035 134.191 191.744 134.748 190.219 135.159C188.752 135.57 186.963 135.775 184.851 135.775C182.152 135.775 179.63 135.306 177.283 134.367C174.995 133.37 172.971 131.932 171.211 130.055C169.51 128.119 168.16 125.772 167.163 123.015C166.224 120.258 165.755 117.09 165.755 113.511V111.927C165.755 108.407 166.254 105.268 167.251 102.511C168.307 99.7535 169.715 97.4362 171.475 95.5588C173.294 93.6228 175.376 92.1562 177.723 91.1588C180.128 90.1615 182.651 89.6628 185.291 89.6628C188.811 89.6628 191.598 90.3375 193.651 91.6868C195.704 92.9775 197.318 94.8255 198.491 97.2308H200.075V72.9428H211.163V134.543H200.075V128.207ZM188.459 125.215C191.92 125.215 194.707 124.13 196.819 121.959C198.99 119.73 200.075 116.826 200.075 113.247V112.191C200.075 108.612 198.99 105.738 196.819 103.567C194.707 101.338 191.92 100.223 188.459 100.223C184.998 100.223 182.182 101.308 180.011 103.479C177.899 105.591 176.843 108.495 176.843 112.191V113.247C176.843 116.943 177.899 119.876 180.011 122.047C182.182 124.159 184.998 125.215 188.459 125.215ZM232.398 116.327C232.457 117.618 232.75 118.82 233.278 119.935C233.865 120.991 234.627 121.93 235.566 122.751C236.563 123.514 237.678 124.13 238.91 124.599C240.201 125.01 241.55 125.215 242.958 125.215C245.715 125.215 247.827 124.746 249.294 123.807C250.761 122.81 251.817 121.636 252.462 120.287L261.966 125.567C261.438 126.682 260.705 127.855 259.766 129.087C258.827 130.26 257.595 131.346 256.07 132.343C254.603 133.34 252.785 134.162 250.614 134.807C248.502 135.452 246.009 135.775 243.134 135.775C239.849 135.775 236.857 135.247 234.158 134.191C231.459 133.135 229.113 131.61 227.118 129.615C225.182 127.62 223.657 125.186 222.542 122.311C221.486 119.436 220.958 116.18 220.958 112.543V112.015C220.958 108.671 221.515 105.62 222.63 102.863C223.803 100.106 225.387 97.7588 227.382 95.8228C229.377 93.8868 231.694 92.3908 234.334 91.3348C237.033 90.2202 239.907 89.6628 242.958 89.6628C246.713 89.6628 249.939 90.3375 252.638 91.6868C255.337 92.9775 257.566 94.6495 259.326 96.7028C261.086 98.6975 262.377 100.927 263.198 103.391C264.019 105.796 264.43 108.143 264.43 110.431V116.327H232.398ZM242.87 99.6948C240.054 99.6948 237.766 100.428 236.006 101.895C234.246 103.303 233.102 104.946 232.574 106.823H253.166C252.814 104.77 251.699 103.068 249.822 101.719C248.003 100.37 245.686 99.6948 242.87 99.6948ZM273.433 90.8948H285.401L295.697 129.263H297.281L307.577 90.8948H319.545L307.049 134.543H285.929L273.433 90.8948Z" fill="#FDF5D3"/>
<path d="M376.279 8.50627L373.313 6.54285L370.306 8.44208C365.857 11.2518 362.207 15.1707 359.705 19.8141C357.208 24.4451 355.935 29.6435 356.003 34.9097V86.6602C355.937 91.9266 357.21 97.1258 359.705 101.758C362.201 106.391 365.837 110.305 370.27 113.117L406.098 136.445C411.104 139.799 416.983 141.592 423 141.592C429.018 141.592 434.896 139.799 439.902 136.445L475.715 113.118C480.152 110.31 483.792 106.398 486.291 101.764C488.787 97.1359 490.062 91.9406 489.997 86.677V34.9097C490.065 29.6414 488.79 24.4409 486.291 19.809C483.785 15.1649 480.131 11.2466 475.678 8.43959L472.672 6.54445L469.709 8.50661L423.041 39.4096L423 39.3822L422.959 39.4097L376.279 8.50627Z" stroke="#F4D248" stroke-width="11"/>
</svg>
