<svg width="1000" height="1000" viewBox="0 0 1000 1000" fill="none" xmlns="http://www.w3.org/2000/svg">
<path d="M500 954.04C746.764 954.04 946.806 836.538 946.806 691.592C946.806 546.646 746.764 429.144 500 429.144C253.236 429.144 53.1941 546.646 53.1941 691.592C53.1941 836.538 253.236 954.04 500 954.04Z" fill="#FDF5D3"/>
<path d="M187.93 691.815C213.784 706.741 213.784 730.943 187.93 745.871C162.076 760.799 120.158 760.799 94.3041 745.871C68.4501 730.945 68.4501 706.743 94.3041 691.815C120.158 676.889 162.076 676.889 187.93 691.815Z" fill="#E0E0E0"/>
<path d="M244.672 726.12L479.2 861.524C483.982 864.286 491.738 864.286 496.52 861.524L893.528 632.312C898.31 629.55 898.31 625.074 893.528 622.312L659 486.908C654.216 484.146 646.462 484.146 641.68 486.908L244.672 716.12C239.89 718.882 239.89 723.358 244.672 726.12Z" fill="#E0E0E0"/>
<path d="M836.554 583.754L820.214 574.312C820.214 574.312 810.49 533.906 814.364 497.546C819.812 446.428 847.322 424.156 866.256 431.602C878.85 436.554 882.756 450.886 861.586 481.33C849.096 499.294 833.75 536.71 836.554 583.754Z" fill="#F4D248"/>
<g opacity="0.3">
<path d="M836.554 583.754L820.214 574.312C820.214 574.312 810.49 533.906 814.364 497.546C819.812 446.428 847.322 424.156 866.256 431.602C878.85 436.554 882.756 450.886 861.586 481.33C849.096 499.294 833.75 536.71 836.554 583.754Z" fill="black"/>
</g>
<path d="M829.782 563.902C829.834 563.9 829.886 563.892 829.938 563.882C830.552 563.764 830.958 563.172 830.84 562.558C821.884 515.41 838.354 462.428 858.75 440.38C859.174 439.922 859.146 439.202 858.686 438.778C858.226 438.358 857.51 438.38 857.084 438.84C836.316 461.288 819.524 515.134 828.612 562.978C828.72 563.544 829.228 563.93 829.782 563.902Z" fill="white"/>
<path d="M879.354 608.472C881.934 609.786 888.8 603.91 890.712 602.482C893.988 600.036 896.572 596.676 898.212 592.942C900.122 588.596 900.428 584.024 899.526 579.368C899.058 576.954 898.258 574.616 897.46 572.29C896.676 570.006 895.894 567.72 895.11 565.436C894.338 563.182 893.554 560.85 893.736 558.474C894.104 553.688 898.158 550.142 901.852 547.074C905.936 543.682 910.144 539.264 909.832 533.538C909.59 529.122 907.096 525.134 904.182 521.804C901.268 518.474 897.866 515.576 895.206 512.04C893.292 509.494 891.746 506.47 891.876 503.288C891.956 501.31 892.678 499.416 893.534 497.632C895.368 493.802 897.864 490.252 899.056 486.176C900.248 482.1 899.798 477.128 896.528 474.42C893.844 472.196 890.014 472.06 886.552 472.466C883.35 472.84 880.284 474.448 877.55 476.154C868.714 481.668 864.068 492.696 854.618 497.072C850.974 498.76 846.914 499.294 843.086 500.514C839.258 501.734 835.404 503.916 833.79 507.592C830.606 514.842 837.616 523.228 835.506 530.862C833.638 537.616 827.31 540.486 823.988 546.656C822.534 549.356 822.322 552.4 822.73 555.44C823.424 560.582 824.37 564.334 827.138 569.952C829.426 574.594 835.866 583.37 835.866 583.37C835.866 583.37 878.96 608.27 879.354 608.472Z" fill="#F4D248"/>
<g opacity="0.15">
<path d="M879.354 608.472C881.934 609.786 888.8 603.91 890.712 602.482C893.988 600.036 896.572 596.676 898.212 592.942C900.122 588.596 900.428 584.024 899.526 579.368C899.058 576.954 898.258 574.616 897.46 572.29C896.676 570.006 895.894 567.72 895.11 565.436C894.338 563.182 893.554 560.85 893.736 558.474C894.104 553.688 898.158 550.142 901.852 547.074C905.936 543.682 910.144 539.264 909.832 533.538C909.59 529.122 907.096 525.134 904.182 521.804C901.268 518.474 897.866 515.576 895.206 512.04C893.292 509.494 891.746 506.47 891.876 503.288C891.956 501.31 892.678 499.416 893.534 497.632C895.368 493.802 897.864 490.252 899.056 486.176C900.248 482.1 899.798 477.128 896.528 474.42C893.844 472.196 890.014 472.06 886.552 472.466C883.35 472.84 880.284 474.448 877.55 476.154C868.714 481.668 864.068 492.696 854.618 497.072C850.974 498.76 846.914 499.294 843.086 500.514C839.258 501.734 835.404 503.916 833.79 507.592C830.606 514.842 837.616 523.228 835.506 530.862C833.638 537.616 827.31 540.486 823.988 546.656C822.534 549.356 822.322 552.4 822.73 555.44C823.424 560.582 824.37 564.334 827.138 569.952C829.426 574.594 835.866 583.37 835.866 583.37C835.866 583.37 878.96 608.27 879.354 608.472Z" fill="black"/>
</g>
<path d="M854.344 595.436C854.36 595.436 854.376 595.434 854.376 595.434C855.016 595.376 855.474 594.822 855.418 594.2C851.282 549.354 869.954 498.674 884.624 483.482C885.058 483.032 885.046 482.314 884.596 481.878C884.144 481.444 883.428 481.458 882.992 481.906C868.026 497.402 848.964 548.93 853.158 594.406C853.216 595.018 853.742 595.466 854.344 595.436Z" fill="white"/>
<path d="M858.8 540.142C858.91 540.136 859.022 540.114 859.132 540.074C873.346 534.882 891.3 533.188 891.48 533.172C892.104 533.114 892.562 532.562 892.506 531.938C892.448 531.316 891.95 530.846 891.272 530.912C891.088 530.93 872.848 532.65 858.354 537.944C857.766 538.158 857.462 538.808 857.678 539.396C857.854 539.878 858.316 540.166 858.8 540.142Z" fill="white"/>
<path d="M252.69 701.234C252.69 707.152 257.12 714.506 262.584 717.66L477.964 842.034C483.428 845.188 492.286 845.188 497.75 842.034L877.008 623.068C882.472 619.914 886.9 612.558 886.902 606.64C886.902 600.722 882.474 593.366 877.01 590.212L661.63 465.838C656.166 462.684 647.308 462.684 641.846 465.838L262.58 684.806C257.118 687.96 252.688 695.316 252.69 701.234Z" fill="#37474F"/>
<path d="M262.58 696.23L477.962 820.604C483.426 823.758 492.284 823.758 497.748 820.604L877.008 601.638C882.472 598.484 882.472 593.37 877.008 590.216L661.628 465.842C656.164 462.688 647.306 462.688 641.844 465.842L262.58 684.806C257.118 687.96 257.118 693.076 262.58 696.23Z" fill="#455A64"/>
<path d="M487.86 822.987V844.393C484.274 844.393 480.686 843.617 477.968 842.039L262.58 717.659C257.12 714.507 252.688 707.149 252.688 701.233C252.688 695.681 256.594 688.873 261.576 685.447C257.144 688.623 257.486 693.283 262.582 696.231L477.97 820.611C480.686 822.187 484.272 822.987 487.86 822.987Z" fill="#263238"/>
<path d="M243.41 685.16C238.286 682.2 238.564 677.204 238.564 670.896L238.562 373.402C238.562 367.094 242.992 359.422 248.454 356.268L627.712 137.302C633.176 134.148 641.76 133.99 646.886 136.948C652.012 139.908 651.734 144.904 651.734 151.212V448.706C651.734 455.014 647.304 462.686 641.842 465.84L262.58 684.806C257.118 687.96 248.534 688.12 243.41 685.16Z" fill="#37474F"/>
<path d="M651.738 151.206C651.738 144.91 647.304 142.356 641.842 145.496L262.576 364.47C259.846 366.048 257.362 368.762 255.588 371.866L241.47 363.654H241.452C243.244 360.55 245.726 357.836 248.458 356.258L627.706 137.3C633.168 134.144 641.752 133.984 646.878 136.946C652.004 139.908 651.738 144.91 651.738 151.206Z" fill="#455A64"/>
<path d="M261.412 685.404C255.952 687.962 248.184 687.918 243.41 685.152C238.292 682.204 238.568 677.206 238.568 670.9V373.394C238.568 370.242 239.664 366.746 241.47 363.662L255.588 371.838V371.86C253.806 374.968 252.686 378.44 252.686 381.592V679.098C252.686 684.946 256.502 687.574 261.412 685.404Z" fill="#263238"/>
<path d="M267.902 375.878L633.558 164.822C636.836 162.93 639.494 164.464 639.494 168.25V427.944C639.494 431.73 636.836 436.332 633.558 438.224L267.902 649.276C264.624 651.168 261.966 649.634 261.966 645.85V386.158C261.966 382.374 264.624 377.77 267.902 375.878Z" fill="#FDF5D3"/>
<path d="M289.958 685.389L641.994 482.145C644.726 480.567 649.154 480.567 651.886 482.145L657.748 485.365C660.48 486.943 660.48 489.499 657.748 491.075L305.658 694.289C302.926 695.867 298.496 695.865 295.764 694.289L289.956 691.101C287.226 689.525 287.226 686.967 289.958 685.389Z" fill="#263238"/>
<path d="M317.568 701.81L669.6 498.562C672.332 496.984 676.378 496.764 678.638 498.07L770.268 550.974C772.528 552.278 772.146 554.614 769.414 556.192L417.792 759.164C415.06 760.74 411.008 760.968 408.742 759.672L316.724 707.016C314.46 705.716 314.836 703.386 317.568 701.81Z" fill="#263238"/>
<path d="M622.608 583.93L633.63 577.568C634.098 577.298 634.14 576.882 633.726 576.642L623.18 570.554C622.764 570.314 622.046 570.338 621.578 570.61L610.556 576.974C610.088 577.244 610.046 577.658 610.462 577.898L621.006 583.986C621.424 584.224 622.14 584.198 622.608 583.93ZM606.516 561.91L595.494 568.274C595.026 568.544 594.984 568.958 595.4 569.198L605.944 575.286C606.36 575.526 607.078 575.5 607.544 575.232L618.566 568.868C619.034 568.598 619.078 568.184 618.662 567.944L608.116 561.856C607.7 561.616 606.984 561.64 606.516 561.91ZM570.906 582.47L552.252 593.24C551.784 593.51 551.742 593.924 552.158 594.164L562.704 600.252C563.12 600.492 563.838 600.468 564.306 600.198L582.958 589.43C583.426 589.16 583.468 588.746 583.052 588.506L572.508 582.418C572.09 582.174 571.374 582.2 570.906 582.47ZM590.406 571.21L579.384 577.574C578.918 577.844 578.874 578.258 579.29 578.498L589.836 584.586C590.252 584.826 590.968 584.802 591.436 584.532L602.458 578.168C602.926 577.898 602.97 577.484 602.554 577.244L592.008 571.156C591.592 570.916 590.874 570.94 590.406 571.21ZM547.166 596.176L536.144 602.54C535.676 602.81 535.634 603.224 536.048 603.464L546.594 609.552C547.01 609.792 547.726 609.768 548.194 609.498L559.216 603.134C559.684 602.864 559.726 602.45 559.31 602.21L548.766 596.122C548.35 595.882 547.634 595.906 547.166 596.176ZM531.056 605.476L520.034 611.84C519.566 612.11 519.524 612.524 519.94 612.764L530.486 618.852C530.902 619.092 531.618 619.068 532.088 618.798L543.11 612.434C543.578 612.164 543.62 611.75 543.204 611.51L532.66 605.422C532.242 605.182 531.524 605.206 531.056 605.476ZM572.388 630.318L583.41 623.954C583.876 623.684 583.92 623.27 583.504 623.03L572.96 616.942C572.544 616.702 571.826 616.726 571.36 616.996L560.338 623.36C559.87 623.63 559.826 624.044 560.242 624.284L570.788 630.372C571.202 630.614 571.92 630.588 572.388 630.318ZM556.278 639.62L567.3 633.258C567.768 632.986 567.81 632.574 567.394 632.332L556.85 626.244C556.434 626.004 555.718 626.028 555.248 626.298L544.226 632.662C543.758 632.932 543.716 633.346 544.13 633.586L554.676 639.674C555.094 639.914 555.81 639.89 556.278 639.62ZM540.17 648.92L551.192 642.556C551.66 642.286 551.702 641.872 551.286 641.632L540.742 635.544C540.326 635.304 539.608 635.328 539.14 635.598L528.118 641.962C527.65 642.232 527.608 642.646 528.024 642.886L538.568 648.974C538.984 649.216 539.7 649.19 540.17 648.92ZM524.06 658.22L535.082 651.856C535.55 651.586 535.592 651.172 535.176 650.932L524.632 644.844C524.216 644.604 523.5 644.628 523.032 644.898L512.01 651.262C511.542 651.532 511.5 651.946 511.916 652.186L522.46 658.274C522.874 658.516 523.592 658.492 524.06 658.22ZM606.5 593.23L617.522 586.866C617.99 586.596 618.032 586.182 617.616 585.942L607.07 579.854C606.654 579.614 605.938 579.64 605.47 579.908L594.448 586.272C593.98 586.542 593.936 586.956 594.352 587.196L604.896 593.284C605.314 593.526 606.032 593.5 606.5 593.23ZM588.498 621.018L613.086 606.822C613.554 606.55 613.596 606.138 613.18 605.898L587.572 591.112C587.156 590.872 586.44 590.896 585.97 591.166L573.252 598.508C572.784 598.778 572.742 599.192 573.156 599.434L586.714 607.262C587.13 607.502 587.086 607.916 586.618 608.186L576.444 614.06C575.976 614.33 575.932 614.744 576.35 614.984L586.896 621.072C587.312 621.312 588.03 621.288 588.498 621.018ZM514.948 614.776L503.926 621.14C503.458 621.41 503.416 621.824 503.832 622.064L514.376 628.152C514.792 628.392 515.508 628.368 515.978 628.098L527 621.736C527.468 621.466 527.51 621.052 527.094 620.812L516.55 614.724C516.132 614.482 515.416 614.508 514.948 614.776ZM498.838 624.078L487.816 630.44C487.348 630.71 487.306 631.124 487.722 631.364L498.266 637.452C498.682 637.692 499.4 637.668 499.868 637.398L510.89 631.034C511.358 630.764 511.4 630.35 510.984 630.11L500.438 624.022C500.022 623.784 499.306 623.808 498.838 624.078ZM409.694 723.382C410.11 723.622 410.826 723.596 411.296 723.326L422.318 716.962C422.786 716.692 422.828 716.278 422.412 716.038L411.868 709.95C411.452 709.71 410.734 709.734 410.266 710.004L399.244 716.368C398.776 716.638 398.734 717.052 399.148 717.292L409.694 723.382ZM369.962 698.484L358.94 704.848C358.472 705.118 358.43 705.532 358.846 705.772L369.39 711.858C369.806 712.1 370.522 712.074 370.992 711.804L382.014 705.44C382.482 705.17 382.524 704.756 382.108 704.516L371.564 698.428C371.148 698.19 370.432 698.214 369.962 698.484ZM390.39 717.132C390.806 717.372 391.524 717.348 391.99 717.078L403.014 710.714C403.482 710.444 403.524 710.03 403.108 709.79L392.564 703.702C392.148 703.462 391.432 703.486 390.964 703.756L379.942 710.12C379.474 710.39 379.43 710.804 379.848 711.044L390.39 717.132ZM434.838 727.128L445.86 720.764C446.328 720.494 446.372 720.08 445.956 719.84L435.41 713.752C434.994 713.512 434.278 713.536 433.808 713.808L422.786 720.172C422.318 720.442 422.276 720.856 422.692 721.096L433.236 727.184C433.652 727.422 434.37 727.4 434.838 727.128ZM417.128 736.484C417.544 736.724 418.26 736.7 418.728 736.43L429.75 730.066C430.218 729.796 430.26 729.382 429.846 729.142L419.3 723.054C418.884 722.814 418.168 722.838 417.7 723.108L406.678 729.472C406.21 729.742 406.168 730.156 406.584 730.396L417.128 736.484ZM386.072 689.184L375.05 695.548C374.582 695.818 374.54 696.232 374.956 696.472L385.5 702.56C385.916 702.8 386.632 702.776 387.1 702.506L398.122 696.142C398.59 695.872 398.632 695.458 398.216 695.218L387.672 689.13C387.258 688.888 386.54 688.914 386.072 689.184ZM466.618 642.68L455.596 649.044C455.128 649.314 455.086 649.728 455.502 649.968L466.046 656.056C466.462 656.296 467.178 656.272 467.648 656.002L478.67 649.638C479.138 649.368 479.18 648.954 478.764 648.714L468.218 642.626C467.804 642.384 467.086 642.41 466.618 642.68ZM402.182 679.884L391.16 686.248C390.692 686.518 390.65 686.932 391.066 687.172L401.61 693.26C402.026 693.5 402.742 693.476 403.212 693.206L414.234 686.842C414.702 686.572 414.744 686.158 414.328 685.918L403.784 679.83C403.366 679.588 402.65 679.612 402.182 679.884ZM482.728 633.378L471.706 639.742C471.238 640.012 471.196 640.426 471.612 640.666L482.156 646.754C482.572 646.994 483.288 646.97 483.758 646.7L494.78 640.338C495.248 640.066 495.29 639.654 494.876 639.414L484.33 633.326C483.914 633.084 483.196 633.108 482.728 633.378ZM450.51 651.98L439.488 658.344C439.02 658.614 438.976 659.028 439.392 659.268L449.938 665.356C450.354 665.596 451.07 665.572 451.54 665.302L462.562 658.938C463.03 658.668 463.074 658.254 462.658 658.014L452.112 651.926C451.696 651.686 450.978 651.71 450.51 651.98ZM434.4 661.282L423.378 667.646C422.91 667.916 422.866 668.33 423.282 668.57L433.828 674.658C434.244 674.898 434.96 674.874 435.43 674.604L446.452 668.242C446.92 667.972 446.962 667.558 446.546 667.316L436.002 661.228C435.586 660.986 434.868 661.012 434.4 661.282ZM418.292 670.582L407.27 676.946C406.802 677.216 406.76 677.63 407.174 677.87L417.72 683.958C418.136 684.198 418.852 684.174 419.32 683.904L430.342 677.54C430.81 677.27 430.852 676.856 430.436 676.616L419.892 670.528C419.476 670.288 418.76 670.312 418.292 670.582ZM491.84 676.822L502.862 670.458C503.33 670.188 503.374 669.774 502.958 669.534L492.412 663.446C491.996 663.206 491.28 663.23 490.812 663.502L479.79 669.864C479.322 670.136 479.28 670.548 479.696 670.79L490.24 676.878C490.656 677.118 491.372 677.092 491.84 676.822ZM642.126 541.35L631.104 547.714C630.636 547.984 630.594 548.398 631.008 548.638L641.554 554.726C641.97 554.966 642.686 554.942 643.156 554.672L654.178 548.308C654.646 548.038 654.688 547.624 654.272 547.384L643.728 541.296C643.312 541.056 642.594 541.08 642.126 541.35ZM622.626 552.61L611.604 558.974C611.136 559.244 611.094 559.658 611.51 559.898L622.054 565.986C622.47 566.226 623.188 566.202 623.656 565.932L634.678 559.568C635.146 559.298 635.188 558.884 634.774 558.644L624.228 552.556C623.81 552.314 623.094 552.34 622.626 552.61ZM658.234 532.05L647.212 538.412C646.744 538.682 646.702 539.096 647.116 539.338L657.662 545.426C658.078 545.666 658.794 545.642 659.262 545.372L670.284 539.008C670.752 538.738 670.796 538.324 670.38 538.084L659.836 531.996C659.42 531.756 658.704 531.78 658.234 532.05ZM569.194 614.768L580.216 608.404C580.684 608.132 580.726 607.72 580.31 607.478L569.766 601.39C569.35 601.15 568.632 601.174 568.164 601.444L557.142 607.808C556.674 608.078 556.632 608.492 557.046 608.732L567.592 614.82C568.008 615.062 568.726 615.038 569.194 614.768ZM675.946 522.694C675.53 522.454 674.812 522.478 674.344 522.748L663.324 529.112C662.856 529.382 662.812 529.796 663.228 530.036L673.774 536.124C674.19 536.364 674.906 536.34 675.374 536.07L686.396 529.706C686.864 529.436 686.908 529.022 686.492 528.782L675.946 522.694ZM507.95 667.522L518.972 661.158C519.44 660.888 519.482 660.474 519.066 660.234L508.522 654.146C508.106 653.906 507.39 653.93 506.922 654.2L495.9 660.564C495.432 660.834 495.39 661.248 495.806 661.488L506.35 667.576C506.766 667.816 507.482 667.792 507.95 667.522ZM705.502 553.464L716.524 547.102C716.992 546.832 717.034 546.418 716.618 546.176L706.072 540.088C705.656 539.848 704.94 539.872 704.47 540.142L693.448 546.506C692.98 546.776 692.938 547.19 693.354 547.43L703.898 553.518C704.316 553.76 705.034 553.736 705.502 553.464ZM674.328 554.07L685.35 547.706C685.818 547.436 685.86 547.024 685.444 546.782L674.898 540.694C674.484 540.454 673.766 540.478 673.298 540.748L662.276 547.112C661.808 547.384 661.764 547.796 662.18 548.036L672.726 554.124C673.142 554.364 673.86 554.34 674.328 554.07ZM691.01 531.392C690.594 531.152 689.878 531.176 689.41 531.446L678.388 537.81C677.922 538.08 677.878 538.494 678.294 538.734L688.84 544.822C689.256 545.062 689.972 545.038 690.44 544.768L701.462 538.404C701.93 538.134 701.974 537.72 701.558 537.48L691.01 531.392ZM694.402 529.434L720.01 544.22C720.426 544.46 721.142 544.436 721.61 544.166L732.632 537.802C733.1 537.532 733.142 537.118 732.728 536.878L707.118 522.092C706.702 521.852 705.984 521.876 705.516 522.146L694.494 528.51C694.028 528.78 693.984 529.194 694.402 529.434ZM657.19 550.048L646.168 556.41C645.7 556.68 645.656 557.094 646.072 557.334L656.618 563.422C657.034 563.662 657.75 563.638 658.22 563.368L669.242 557.004C669.71 556.732 669.752 556.32 669.336 556.08L658.792 549.992C658.376 549.754 657.658 549.778 657.19 550.048ZM535.946 620.048L524.924 626.412C524.456 626.682 524.414 627.096 524.83 627.336L535.374 633.424C535.79 633.664 536.506 633.64 536.974 633.37L547.996 627.006C548.464 626.736 548.506 626.322 548.09 626.082L537.546 619.994C537.13 619.752 536.414 619.778 535.946 620.048ZM687.792 562.82C688.206 563.06 688.924 563.036 689.394 562.766L700.416 556.402C700.884 556.13 700.926 555.718 700.51 555.478L689.964 549.39C689.55 549.15 688.832 549.174 688.364 549.444L677.342 555.808C676.874 556.078 676.83 556.492 677.248 556.732L687.792 562.82ZM552.056 610.748L541.034 617.112C540.566 617.382 540.524 617.796 540.94 618.036L551.484 624.124C551.9 624.364 552.616 624.34 553.084 624.07L564.106 617.706C564.574 617.436 564.616 617.022 564.2 616.782L553.656 610.694C553.24 610.452 552.524 610.478 552.056 610.748ZM425.802 714.08C426.218 714.32 426.936 714.296 427.404 714.026L438.426 707.662C438.892 707.392 438.936 706.978 438.52 706.738L427.974 700.65C427.558 700.41 426.842 700.434 426.374 700.704L415.352 707.068C414.884 707.338 414.842 707.752 415.256 707.992L425.802 714.08ZM407.072 694.454L396.05 700.818C395.582 701.088 395.54 701.502 395.956 701.742L406.5 707.83C406.916 708.07 407.632 708.046 408.1 707.776L419.122 701.414C419.59 701.144 419.632 700.73 419.216 700.49L408.672 694.402C408.256 694.158 407.54 694.184 407.072 694.454ZM443.512 704.724L454.534 698.36C455.002 698.09 455.046 697.676 454.63 697.436L444.084 691.348C443.668 691.108 442.952 691.132 442.482 691.402L431.46 697.766C430.992 698.036 430.95 698.45 431.366 698.69L441.912 704.778C442.328 705.018 443.046 704.996 443.512 704.724ZM459.622 695.424L470.644 689.06C471.112 688.788 471.156 688.376 470.74 688.136L460.194 682.048C459.78 681.808 459.062 681.832 458.592 682.102L447.57 688.466C447.102 688.736 447.058 689.15 447.476 689.39L458.022 695.478C458.436 695.718 459.154 695.694 459.622 695.424ZM475.732 686.122L486.754 679.76C487.222 679.488 487.264 679.076 486.85 678.834L476.304 672.746C475.888 672.506 475.172 672.53 474.702 672.802L463.68 679.164C463.212 679.434 463.17 679.848 463.586 680.088L474.13 686.176C474.546 686.418 475.264 686.394 475.732 686.122ZM423.18 685.154L412.158 691.516C411.69 691.786 411.648 692.2 412.062 692.44L422.608 698.528C423.024 698.768 423.74 698.744 424.21 698.474L435.232 692.11C435.7 691.84 435.742 691.426 435.326 691.186L424.78 685.098C424.366 684.86 423.648 684.882 423.18 685.154ZM439.29 675.852L428.268 682.216C427.8 682.486 427.756 682.9 428.172 683.14L438.718 689.228C439.134 689.468 439.85 689.444 440.318 689.174L451.34 682.81C451.808 682.54 451.85 682.126 451.434 681.886L440.89 675.798C440.476 675.558 439.758 675.582 439.29 675.852ZM503.728 638.65L492.706 645.012C492.238 645.284 492.196 645.696 492.612 645.936L503.156 652.024C503.572 652.264 504.288 652.24 504.758 651.97L515.78 645.608C516.248 645.338 516.29 644.924 515.876 644.682L505.33 638.594C504.912 638.356 504.196 638.38 503.728 638.65ZM487.618 647.95L476.596 654.314C476.128 654.584 476.086 654.998 476.502 655.238L487.046 661.326C487.462 661.566 488.18 661.542 488.648 661.272L499.67 654.91C500.138 654.638 500.182 654.226 499.766 653.984L489.22 647.896C488.802 647.656 488.086 647.68 487.618 647.95ZM519.836 629.348L508.814 635.712C508.346 635.982 508.304 636.396 508.72 636.636L519.264 642.724C519.68 642.964 520.396 642.94 520.866 642.67L531.888 636.306C532.356 636.036 532.398 635.622 531.982 635.382L521.438 629.294C521.022 629.054 520.304 629.08 519.836 629.348ZM455.4 666.552L444.378 672.916C443.91 673.186 443.866 673.6 444.282 673.84L454.828 679.928C455.244 680.168 455.96 680.144 456.43 679.874L467.452 673.51C467.92 673.238 467.962 672.826 467.546 672.586L457 666.498C456.584 666.258 455.868 666.282 455.4 666.552ZM471.508 657.252L460.486 663.616C460.018 663.886 459.976 664.3 460.392 664.54L470.938 670.628C471.352 670.868 472.07 670.844 472.538 670.574L483.56 664.21C484.028 663.94 484.072 663.526 483.656 663.286L473.11 657.198C472.694 656.956 471.976 656.982 471.508 657.252ZM450.946 717.828L461.968 711.464C462.436 711.194 462.478 710.78 462.064 710.54L451.518 704.452C451.102 704.212 450.386 704.236 449.916 704.506L438.894 710.87C438.426 711.14 438.382 711.554 438.8 711.794L449.344 717.882C449.762 718.122 450.478 718.098 450.946 717.828ZM366 713.818L355.454 707.73C355.038 707.49 354.322 707.514 353.852 707.784L342.83 714.148C342.362 714.418 342.32 714.832 342.736 715.072L353.28 721.16C353.698 721.4 354.414 721.376 354.882 721.104L365.904 714.742C366.374 714.472 366.414 714.058 366 713.818ZM386.998 719.088L376.454 713C376.038 712.76 375.322 712.784 374.854 713.054L357.896 722.844C357.428 723.114 357.386 723.528 357.802 723.768L368.346 729.856C368.762 730.096 369.478 730.072 369.946 729.802L386.904 720.012C387.372 719.742 387.414 719.328 386.998 719.088ZM350.26 701.794L339.716 695.706C339.3 695.466 338.584 695.49 338.116 695.76L324.55 703.592C324.082 703.862 324.04 704.276 324.456 704.516L335 710.604C335.416 710.844 336.134 710.82 336.602 710.55L350.168 702.718C350.634 702.448 350.676 702.034 350.26 701.794ZM360.662 695.79C361.076 696.03 361.794 696.006 362.262 695.736L373.284 689.372C373.752 689.102 373.796 688.688 373.38 688.448L362.834 682.36C362.418 682.12 361.702 682.144 361.232 682.414L350.21 688.778C349.742 689.05 349.698 689.462 350.114 689.702L360.662 695.79ZM406.302 725.338L395.758 719.25C395.342 719.01 394.626 719.036 394.156 719.306L372.96 731.542C372.492 731.814 372.45 732.226 372.866 732.466L383.41 738.554C383.826 738.794 384.542 738.77 385.012 738.5L406.208 726.262C406.676 725.992 406.718 725.58 406.302 725.338ZM413.736 738.442L403.19 732.354C402.776 732.114 402.058 732.138 401.59 732.408L388.024 740.24C387.556 740.51 387.514 740.926 387.93 741.164L398.474 747.252C398.89 747.492 399.606 747.468 400.076 747.198L413.642 739.366C414.108 739.096 414.15 738.682 413.736 738.442ZM480.436 626.638C480.852 626.878 481.568 626.854 482.036 626.584L493.058 620.22C493.526 619.95 493.57 619.536 493.154 619.296L482.61 613.208C482.194 612.968 481.476 612.992 481.008 613.262L469.986 619.626C469.518 619.896 469.474 620.31 469.89 620.55L480.436 626.638ZM448.216 645.24C448.632 645.48 449.35 645.456 449.818 645.186L460.84 638.822C461.308 638.552 461.35 638.138 460.934 637.898L450.39 631.81C449.974 631.57 449.258 631.594 448.79 631.864L437.768 638.226C437.3 638.496 437.258 638.91 437.672 639.15L448.216 645.24ZM376.77 686.488C377.186 686.728 377.904 686.704 378.372 686.434L389.394 680.07C389.862 679.8 389.906 679.386 389.49 679.146L378.946 673.058C378.53 672.818 377.814 672.842 377.344 673.114L366.322 679.478C365.854 679.748 365.812 680.162 366.228 680.402L376.77 686.488ZM464.326 635.938C464.742 636.178 465.458 636.154 465.926 635.884L476.948 629.52C477.416 629.25 477.458 628.836 477.042 628.596L466.498 622.508C466.082 622.268 465.366 622.292 464.896 622.564L453.874 628.928C453.406 629.198 453.364 629.612 453.778 629.852L464.326 635.938ZM432.106 654.54C432.522 654.78 433.24 654.756 433.708 654.484L444.73 648.122C445.198 647.852 445.242 647.438 444.824 647.196L434.28 641.108C433.864 640.868 433.146 640.892 432.678 641.162L421.656 647.526C421.188 647.796 421.146 648.21 421.562 648.45L432.106 654.54ZM421.646 739.094C421.23 738.854 420.514 738.878 420.044 739.148L403.086 748.938C402.618 749.208 402.576 749.622 402.992 749.862L413.538 755.95C413.954 756.19 414.67 756.166 415.138 755.896L432.096 746.106C432.564 745.836 432.606 745.422 432.19 745.182L421.646 739.094ZM408.988 667.888C409.404 668.128 410.12 668.104 410.59 667.834L421.612 661.47C422.08 661.2 422.122 660.786 421.706 660.546L411.162 654.458C410.746 654.218 410.028 654.244 409.56 654.514L398.538 660.878C398.07 661.148 398.028 661.562 398.444 661.802L408.988 667.888ZM392.878 677.188C393.294 677.428 394.01 677.404 394.478 677.134L405.5 670.77C405.968 670.5 406.01 670.086 405.596 669.846L395.05 663.758C394.634 663.518 393.918 663.542 393.448 663.812L382.426 670.176C381.958 670.446 381.916 670.86 382.332 671.1L392.878 677.188ZM720.092 566.784C719.676 566.544 718.96 566.568 718.49 566.838L691.36 582.502C690.892 582.772 690.848 583.186 691.264 583.428L701.81 589.516C702.224 589.756 702.942 589.732 703.412 589.462L730.542 573.798C731.01 573.528 731.052 573.114 730.636 572.874L720.092 566.784ZM684.482 587.344C684.066 587.104 683.35 587.128 682.88 587.398L671.858 593.76C671.39 594.03 671.348 594.444 671.764 594.684L682.308 600.772C682.724 601.012 683.44 600.988 683.91 600.716L694.932 594.352C695.4 594.082 695.442 593.668 695.026 593.428L684.482 587.344ZM467.056 708.526L478.078 702.162C478.546 701.892 478.588 701.478 478.172 701.238L467.628 695.15C467.212 694.91 466.496 694.934 466.026 695.204L455.004 701.568C454.536 701.838 454.494 702.252 454.91 702.492L465.454 708.58C465.87 708.822 466.588 708.796 467.056 708.526ZM652.264 605.946C651.848 605.706 651.13 605.73 650.662 606L639.64 612.364C639.172 612.636 639.13 613.048 639.546 613.288L650.09 619.376C650.506 619.616 651.222 619.592 651.69 619.322L662.712 612.958C663.18 612.688 663.222 612.274 662.808 612.034L652.264 605.946ZM736.202 557.484C735.786 557.244 735.068 557.268 734.6 557.538L723.578 563.902C723.11 564.172 723.068 564.586 723.484 564.826L734.028 570.914C734.444 571.154 735.162 571.13 735.63 570.86L746.652 564.496C747.12 564.226 747.162 563.812 746.748 563.572L736.202 557.484ZM762.856 554.272L737.246 539.486C736.83 539.246 736.114 539.27 735.646 539.54L724.624 545.904C724.156 546.174 724.114 546.588 724.53 546.828L750.138 561.614C750.554 561.854 751.27 561.83 751.738 561.56L762.76 555.196C763.23 554.926 763.272 554.51 762.856 554.272ZM592.066 640.7C591.65 640.46 590.932 640.484 590.466 640.754L576.9 648.586C576.432 648.856 576.39 649.27 576.806 649.51L587.35 655.598C587.766 655.838 588.482 655.814 588.952 655.544L602.518 647.712C602.986 647.442 603.03 647.028 602.612 646.788L592.066 640.7ZM632.764 617.204C632.348 616.964 631.632 616.988 631.162 617.258L614.204 627.048C613.736 627.318 613.694 627.732 614.11 627.972L624.656 634.06C625.072 634.3 625.788 634.276 626.258 634.006L643.216 624.216C643.684 623.946 643.726 623.532 643.31 623.292L632.764 617.204ZM554.76 662.24C554.344 662 553.628 662.024 553.158 662.294L462.438 714.672C461.97 714.942 461.926 715.356 462.342 715.596L472.888 721.684C473.304 721.924 474.02 721.9 474.49 721.63L565.21 669.252C565.678 668.982 565.72 668.568 565.304 668.328L554.76 662.24ZM458.952 717.554C458.536 717.314 457.818 717.338 457.352 717.608L443.786 725.44C443.318 725.71 443.276 726.124 443.692 726.364L454.236 732.452C454.652 732.692 455.37 732.668 455.838 732.396L469.406 724.564C469.872 724.294 469.916 723.88 469.5 723.64L458.952 717.554ZM573.412 651.47C572.996 651.23 572.28 651.254 571.81 651.524L558.244 659.356C557.776 659.628 557.732 660.04 558.148 660.28L568.694 666.368C569.108 666.61 569.826 666.584 570.296 666.314L583.862 658.48C584.33 658.21 584.372 657.798 583.956 657.556L573.412 651.47ZM440.298 728.322C439.882 728.082 439.166 728.106 438.698 728.376L425.132 736.208C424.664 736.478 424.622 736.892 425.038 737.132L435.582 743.22C435.998 743.46 436.714 743.436 437.184 743.166L450.75 735.334C451.218 735.064 451.262 734.65 450.846 734.41L440.298 728.322ZM610.718 629.932C610.302 629.692 609.586 629.716 609.116 629.986L595.55 637.818C595.084 638.088 595.04 638.502 595.456 638.742L606.002 644.83C606.418 645.07 607.134 645.046 607.602 644.776L621.168 636.944C621.636 636.674 621.678 636.26 621.262 636.02L610.718 629.932ZM668.374 596.644C667.958 596.404 667.242 596.428 666.772 596.698L655.75 603.062C655.282 603.332 655.24 603.746 655.656 603.986L666.2 610.074C666.616 610.314 667.332 610.288 667.802 610.02L678.824 603.656C679.292 603.386 679.334 602.972 678.918 602.732L668.374 596.644ZM704.456 571.464L715.478 565.1C715.946 564.83 715.99 564.416 715.574 564.176L705.028 558.088C704.612 557.848 703.896 557.872 703.426 558.142L692.404 564.506C691.936 564.776 691.894 565.19 692.31 565.43L702.856 571.518C703.272 571.758 703.988 571.734 704.456 571.464ZM638.718 574.628L649.74 568.264C650.208 567.994 650.25 567.58 649.836 567.34L639.29 561.252C638.874 561.012 638.158 561.036 637.69 561.306L626.668 567.67C626.2 567.94 626.158 568.354 626.574 568.594L637.118 574.682C637.534 574.922 638.25 574.898 638.718 574.628ZM595.93 634.12L628.15 615.518C628.618 615.248 628.66 614.834 628.244 614.594L617.7 608.506C617.284 608.266 616.568 608.29 616.1 608.56L583.882 627.162C583.414 627.432 583.372 627.846 583.788 628.086L594.332 634.174C594.746 634.416 595.462 634.392 595.93 634.12ZM686.746 580.818C687.162 581.058 687.878 581.034 688.346 580.764L699.368 574.4C699.836 574.13 699.88 573.716 699.462 573.476L688.918 567.388C688.502 567.148 687.786 567.172 687.318 567.442L676.294 573.806C675.826 574.076 675.784 574.49 676.2 574.73L686.746 580.818ZM673.284 572.068L684.306 565.704C684.774 565.434 684.816 565.02 684.4 564.78L673.856 558.692C673.44 558.452 672.722 558.476 672.254 558.746L661.232 565.11C660.764 565.38 660.72 565.794 661.136 566.034L671.682 572.122C672.098 572.362 672.816 572.338 673.284 572.068ZM579.82 643.422L590.842 637.058C591.31 636.788 591.352 636.374 590.936 636.134L580.392 630.046C579.976 629.806 579.26 629.83 578.79 630.1L567.768 636.464C567.3 636.734 567.258 637.148 567.674 637.388L578.218 643.476C578.636 643.716 579.352 643.692 579.82 643.422ZM651.136 601.378C651.552 601.618 652.268 601.594 652.738 601.324L663.76 594.96C664.228 594.69 664.27 594.276 663.854 594.036L653.308 587.948C652.892 587.708 652.176 587.732 651.708 588.002L640.686 594.366C640.218 594.636 640.176 595.05 640.592 595.29L651.136 601.378ZM499.274 689.926L510.296 683.562C510.764 683.292 510.806 682.878 510.39 682.638L499.846 676.55C499.43 676.31 498.714 676.334 498.246 676.604L487.224 682.968C486.756 683.238 486.714 683.652 487.128 683.892L497.674 689.98C498.09 690.22 498.806 690.196 499.274 689.926ZM515.384 680.624L526.406 674.26C526.874 673.99 526.916 673.576 526.5 673.336L515.954 667.248C515.538 667.008 514.822 667.032 514.354 667.304L503.332 673.668C502.864 673.938 502.822 674.352 503.236 674.592L513.782 680.68C514.2 680.92 514.916 680.896 515.384 680.624ZM483.166 699.226L494.188 692.862C494.656 692.592 494.7 692.178 494.282 691.938L483.738 685.85C483.322 685.61 482.606 685.634 482.136 685.904L471.114 692.268C470.646 692.538 470.604 692.952 471.018 693.192L481.564 699.28C481.98 699.52 482.696 699.496 483.166 699.226ZM547.602 662.024L558.624 655.66C559.092 655.39 559.136 654.976 558.718 654.736L548.174 648.648C547.758 648.408 547.042 648.432 546.572 648.702L535.55 655.066C535.082 655.336 535.04 655.75 535.456 655.99L546 662.078C546.418 662.318 547.134 662.294 547.602 662.024ZM531.492 671.322L542.514 664.958C542.982 664.688 543.026 664.274 542.61 664.034L532.064 657.946C531.648 657.706 530.932 657.73 530.462 658L519.44 664.362C518.972 664.632 518.93 665.046 519.346 665.286L529.892 671.374C530.308 671.618 531.026 671.594 531.492 671.322ZM563.712 652.722L574.734 646.358C575.202 646.088 575.244 645.674 574.828 645.434L564.282 639.346C563.866 639.106 563.15 639.13 562.68 639.4L551.658 645.764C551.19 646.034 551.148 646.448 551.564 646.688L562.108 652.776C562.526 653.018 563.242 652.992 563.712 652.722ZM651.62 523.336C652.036 523.576 652.754 523.552 653.222 523.282L664.244 516.918C664.712 516.648 664.754 516.234 664.338 515.994L661.532 514.372C661.116 514.132 660.398 514.156 659.93 514.428L648.908 520.792C648.442 521.062 648.398 521.476 648.814 521.716L651.62 523.336ZM571.552 574.032C571.966 574.272 572.684 574.248 573.152 573.978L584.174 567.614C584.642 567.344 584.684 566.93 584.268 566.69L573.724 560.602C573.308 560.36 572.59 560.386 572.122 560.656L561.1 567.02C560.632 567.29 560.588 567.704 561.004 567.944L571.552 574.032ZM603.77 555.43C604.186 555.67 604.902 555.646 605.37 555.376L616.392 549.012C616.86 548.742 616.902 548.328 616.488 548.086L605.942 541.998C605.526 541.758 604.81 541.782 604.342 542.052L593.32 548.416C592.854 548.686 592.81 549.1 593.226 549.34L603.77 555.43ZM551.88 585.388C552.296 585.628 553.012 585.604 553.482 585.334L564.504 578.97C564.972 578.7 565.014 578.286 564.598 578.046L554.054 571.958C553.638 571.718 552.922 571.742 552.452 572.014L541.43 578.376C540.962 578.646 540.92 579.06 541.336 579.3L551.88 585.388ZM587.662 564.73C588.078 564.97 588.794 564.946 589.264 564.676L600.286 558.312C600.752 558.042 600.796 557.628 600.38 557.388L589.834 551.3C589.42 551.06 588.702 551.084 588.234 551.354L577.212 557.718C576.744 557.988 576.7 558.402 577.116 558.642L587.662 564.73ZM519.662 603.99C520.078 604.23 520.794 604.204 521.264 603.934L532.286 597.57C532.754 597.3 532.796 596.886 532.382 596.644L521.836 590.556C521.42 590.316 520.704 590.34 520.234 590.61L509.212 596.974C508.744 597.246 508.702 597.658 509.118 597.898L519.662 603.99ZM535.772 594.69C536.188 594.93 536.904 594.906 537.374 594.636L548.396 588.272C548.864 588.002 548.906 587.588 548.49 587.348L537.946 581.26C537.53 581.02 536.814 581.044 536.344 581.314L525.322 587.678C524.854 587.948 524.812 588.362 525.228 588.602L535.772 594.69ZM619.402 541.938C619.818 542.178 620.536 542.154 621.004 541.884L632.026 535.52C632.494 535.25 632.536 534.838 632.12 534.596L629.312 532.976C628.896 532.736 628.18 532.76 627.712 533.03L616.69 539.394C616.222 539.664 616.178 540.078 616.594 540.318L619.402 541.938ZM667.73 514.036C668.146 514.276 668.862 514.252 669.332 513.982L680.354 507.618C680.822 507.348 680.864 506.934 680.448 506.694L677.64 505.072C677.224 504.832 676.508 504.858 676.038 505.128L665.016 511.492C664.548 511.762 664.504 512.176 664.922 512.418L667.73 514.036ZM689.882 526.824C690.298 527.064 691.014 527.04 691.484 526.77L702.506 520.406C702.974 520.136 703.016 519.722 702.602 519.482L692.056 513.394C691.64 513.154 690.924 513.178 690.454 513.448L679.432 519.812C678.964 520.082 678.922 520.496 679.338 520.736L689.882 526.824ZM720.566 562.162L731.588 555.798C732.056 555.528 732.1 555.114 731.684 554.874L721.138 548.786C720.722 548.546 720.006 548.57 719.536 548.84L708.514 555.204C708.046 555.474 708.004 555.888 708.42 556.128L718.964 562.216C719.38 562.458 720.098 562.432 720.566 562.162ZM635.512 532.636C635.928 532.876 636.644 532.852 637.114 532.582L648.136 526.218C648.604 525.948 648.646 525.534 648.23 525.294L645.422 523.674C645.006 523.434 644.29 523.458 643.82 523.728L632.798 530.092C632.33 530.362 632.288 530.776 632.704 531.016L635.512 532.636ZM503.552 613.29C503.968 613.53 504.686 613.506 505.154 613.236L516.176 606.872C516.644 606.602 516.688 606.188 516.27 605.948L505.724 599.86C505.308 599.62 504.592 599.644 504.124 599.914L493.102 606.278C492.634 606.548 492.592 606.962 493.008 607.202L503.552 613.29Z" fill="#455A64"/>
<path d="M551.226 696.372L553.486 697.676L613.514 732.328L720.266 670.692L722.488 669.426L660.2 633.472L551.226 696.372Z" fill="#37474F"/>
<path d="M553.486 697.676L613.514 732.328L720.266 670.692L660.2 636.04L553.486 697.676Z" fill="#263238"/>
<path d="M214.126 426.41L189.668 412.29C188.58 411.662 187.788 411.504 187.36 411.754C186.848 412.054 184.81 413.23 184.38 413.476C183.86 413.772 183.87 414.656 184.526 416.018L190.476 428.336L186.036 432.412C184.002 434.28 184.29 436.912 186.682 438.292L211.138 452.412L214.124 450.686V426.41H214.126Z" fill="#F4D248"/>
<path opacity="0.5" d="M214.126 426.41L189.668 412.29C188.58 411.662 187.788 411.504 187.36 411.754C186.848 412.054 184.81 413.23 184.38 413.476C183.86 413.772 183.87 414.656 184.526 416.018L190.476 428.336L186.036 432.412C184.002 434.28 184.29 436.912 186.682 438.292L211.138 452.412L214.124 450.686V426.41H214.126Z" fill="white"/>
<path d="M186.684 414.015C184.292 412.635 183.328 413.531 184.528 416.017L190.478 428.335L186.038 432.411C184.004 434.279 184.292 436.911 186.684 438.291L211.14 452.411V428.133L186.684 414.015Z" fill="#F4D248"/>
<path d="M214.014 504.219C212.426 504.219 211.14 502.933 211.14 501.345V420.105C211.14 418.517 212.428 417.231 214.014 417.231C215.602 417.231 216.888 418.519 216.888 420.105V501.345C216.888 502.933 215.602 504.219 214.014 504.219Z" fill="#455A64"/>
<path d="M108.77 720.548V715.472H110.022C111.482 712.518 114.212 709.728 118.242 707.402C130.88 700.106 151.366 700.106 164.002 707.402C168.032 709.728 170.764 712.518 172.222 715.472H173.46V720.386C173.562 725.242 170.42 730.116 164.002 733.82C151.366 741.116 130.878 741.116 118.242 733.82C111.896 730.156 108.742 725.35 108.77 720.548Z" fill="#263238"/>
<path d="M164.002 702.262C151.366 694.966 130.878 694.966 118.242 702.262C105.606 709.558 105.606 721.386 118.242 728.682C130.878 735.978 151.366 735.978 164.002 728.682C176.638 721.386 176.638 709.558 164.002 702.262Z" fill="#455A64"/>
<path d="M149.456 539.55L149.45 713.256C149.45 714.486 148.636 715.716 147.01 716.656C143.758 718.534 138.484 718.534 135.232 716.656C133.606 715.716 132.794 714.486 132.794 713.256L132.8 539.55H149.456Z" fill="#37474F"/>
<path d="M132.794 560.558V576.898L149.454 586.492L149.456 570.196L132.794 560.558Z" fill="#263238"/>
<path d="M193.202 524.01L224.002 541.81C223.842 542.05 223.622 542.29 223.402 542.43L169.522 573.53C169.062 573.79 168.702 573.59 168.702 573.05V534.23C168.702 527.47 170.262 519.95 173.202 512.47L193.202 524.01Z" fill="#F4D248"/>
<path opacity="0.4" d="M193.202 524.01L224.002 541.81C223.842 542.05 223.622 542.29 223.402 542.43L169.522 573.53C169.062 573.79 168.702 573.59 168.702 573.05V534.23C168.702 527.47 170.262 519.95 173.202 512.47L193.202 524.01Z" fill="black"/>
<path d="M224.236 498.506V541.946L173.21 512.478C173.26 512.338 173.318 512.192 173.374 512.052C178.846 498.384 188.07 486.792 198.068 481.04C202.168 478.666 206.054 477.466 209.61 477.466C218.63 477.468 224.236 485.53 224.236 498.506Z" fill="#F4D248"/>
<path opacity="0.3" d="M224.236 498.506V541.946L173.21 512.478C173.26 512.338 173.318 512.192 173.374 512.052C178.846 498.384 188.07 486.792 198.068 481.04C202.168 478.666 206.054 477.466 209.61 477.466C218.63 477.468 224.236 485.53 224.236 498.506Z" fill="black"/>
<path d="M279.658 590.44L279.656 586.56H279.288V587.114C279.06 586.062 278.728 585.014 278.276 583.974C276.238 579.22 271.946 574.662 265.396 570.878L228.932 549.828C227.414 548.952 224.958 548.952 223.434 549.828L167.684 582.014C167.096 581.488 166.452 580.97 165.912 580.06V583.968C165.912 584.542 166.292 585.118 167.05 585.556L203.514 606.606C213.272 612.244 226.03 615.01 238.39 614.846C249.086 614.706 259.484 612.37 267.408 607.786C275.606 603.074 279.646 596.822 279.646 590.44H279.658Z" fill="#F4D248"/>
<path opacity="0.4" d="M279.658 590.44L279.656 586.56H279.288V587.114C279.06 586.062 278.728 585.014 278.276 583.974C276.238 579.22 271.946 574.662 265.396 570.878L228.932 549.828C227.414 548.952 224.958 548.952 223.434 549.828L167.684 582.014C167.096 581.488 166.452 580.97 165.912 580.06V583.968C165.912 584.542 166.292 585.118 167.05 585.556L203.514 606.606C213.272 612.244 226.03 615.01 238.39 614.846C249.086 614.706 259.484 612.37 267.408 607.786C275.606 603.074 279.646 596.822 279.646 590.44H279.658Z" fill="black"/>
<path d="M278.276 583.974C276.238 579.22 271.946 574.662 265.396 570.878L228.932 549.828C227.414 548.952 224.958 548.952 223.434 549.828L167.684 582.014L203.514 602.702C213.272 608.34 226.03 611.108 238.39 610.942C249.086 610.796 259.484 608.46 267.408 603.882C274.766 599.648 278.784 594.182 279.526 588.488C279.342 586.978 278.924 585.466 278.276 583.974Z" fill="#F4D248"/>
<path opacity="0.2" d="M278.276 583.974C276.238 579.22 271.946 574.662 265.396 570.878L228.932 549.828C227.414 548.952 224.958 548.952 223.434 549.828L167.684 582.014L203.514 602.702C213.272 608.34 226.03 611.108 238.39 610.942C249.086 610.796 259.484 608.46 267.408 603.882C274.766 599.648 278.784 594.182 279.526 588.488C279.342 586.978 278.924 585.466 278.276 583.974Z" fill="black"/>
<path d="M279.526 588.488C279.342 586.978 278.922 585.466 278.276 583.974C276.238 579.22 271.946 574.662 265.396 570.878L228.932 549.828C227.414 548.952 224.958 548.952 223.434 549.828L167.684 582.014L167.05 581.652C165.532 580.776 165.532 579.354 167.05 578.478L223.434 545.924C224.958 545.048 227.414 545.048 228.932 545.924L265.396 566.974C271.948 570.758 276.238 575.316 278.276 580.07C278.962 581.65 279.394 583.256 279.564 584.862C279.698 586.076 279.684 587.288 279.526 588.488Z" fill="#F4D248"/>
<path opacity="0.3" d="M279.526 588.488C279.342 586.978 278.922 585.466 278.276 583.974C276.238 579.22 271.946 574.662 265.396 570.878L228.932 549.828C227.414 548.952 224.958 548.952 223.434 549.828L167.684 582.014L167.05 581.652C165.532 580.776 165.532 579.354 167.05 578.478L223.434 545.924C224.958 545.048 227.414 545.048 228.932 545.924L265.396 566.974C271.948 570.758 276.238 575.316 278.276 580.07C278.962 581.65 279.394 583.256 279.564 584.862C279.698 586.076 279.684 587.288 279.526 588.488Z" fill="black"/>
<path d="M168.276 577.922L224.66 545.368L223.41 542.422L169.526 573.534L168.276 577.922Z" fill="#F4D248"/>
<path opacity="0.1" d="M168.276 577.922L224.66 545.368L223.41 542.422L169.526 573.534L168.276 577.922Z" fill="black"/>
<path d="M219.266 495.916C219.266 495.06 218.666 494.02 217.924 493.592L149.274 453.958C148.532 453.53 147.332 453.53 146.59 453.958L145.078 454.832C144.336 455.26 143.736 456.3 143.736 457.156V509.776C143.736 510.628 144.34 511.674 145.078 512.1L213.728 551.734C214.466 552.16 215.674 552.16 216.412 551.734L217.924 550.86C218.662 550.434 219.266 549.388 219.266 548.536V495.916Z" fill="#F5F5F5"/>
<path d="M218.874 494.596L215.066 496.792L144.132 455.834C144.374 455.414 144.71 455.046 145.078 454.832L146.596 453.962C147.332 453.53 148.538 453.53 149.276 453.962L217.926 493.594C218.296 493.808 218.632 494.176 218.874 494.596Z" fill="#E0E0E0"/>
<path d="M214.754 552.024C214.834 552.044 214.914 552.044 215.014 552.044H214.934C214.854 552.044 214.814 552.044 214.754 552.024Z" fill="#F4D248"/>
<path d="M215.074 496.784L214.374 497.204C214.794 497.364 215.074 497.784 215.074 498.344V550.964C215.074 551.404 214.914 551.704 214.654 551.844C214.474 551.924 214.254 551.944 214.014 551.864C213.914 551.824 213.814 551.784 213.734 551.744L145.074 512.104C144.334 511.664 143.734 510.624 143.734 509.784V457.164C143.734 456.724 143.894 456.244 144.134 455.824L215.074 496.784Z" fill="#EBEBEB"/>
<path opacity="0.2" d="M215.066 496.792L183.274 508.67C181.008 509.514 178.462 508.676 177.142 506.652L172.036 498.829L143.876 455.688L171.018 499.124L143.738 509.799C143.744 510.231 143.902 510.714 144.156 511.14L171.094 499.246L177.026 508.74C178.39 510.918 181.146 511.768 183.494 510.726L187.718 508.862L214.65 551.844C214.904 551.71 215.062 551.405 215.062 550.961V550.086L187.848 508.803L215.066 496.792Z" fill="black"/>
<path d="M203.016 505.229C203.016 504.373 202.416 503.333 201.674 502.905L133.024 463.271C132.282 462.843 131.082 462.843 130.34 463.271L128.828 464.145C128.086 464.573 127.486 465.613 127.486 466.469V519.091C127.486 519.943 128.09 520.989 128.828 521.415L197.478 561.049C198.216 561.475 199.424 561.475 200.162 561.049L201.674 560.175C202.412 559.749 203.016 558.703 203.016 557.851V505.229Z" fill="#F5F5F5"/>
<path d="M202.626 503.907L198.816 506.103L127.882 465.145C128.124 464.725 128.46 464.357 128.828 464.141L130.346 463.271C131.082 462.839 132.288 462.839 133.026 463.271L201.676 502.903C202.048 503.119 202.384 503.487 202.626 503.907Z" fill="#E0E0E0"/>
<path d="M198.504 561.338C198.584 561.358 198.664 561.358 198.764 561.358H198.684C198.604 561.358 198.564 561.358 198.504 561.338Z" fill="#F4D248"/>
<path d="M198.824 506.097L198.124 506.517C198.544 506.677 198.824 507.097 198.824 507.657V560.277C198.824 560.717 198.664 561.017 198.404 561.157C198.224 561.237 198.004 561.257 197.764 561.177C197.664 561.137 197.564 561.097 197.484 561.057L128.824 521.417C128.084 520.977 127.484 519.937 127.484 519.097V466.477C127.484 466.037 127.644 465.557 127.884 465.137L198.824 506.097Z" fill="#EBEBEB"/>
<path opacity="0.2" d="M198.816 506.103L167.024 517.981C164.758 518.825 162.212 517.987 160.892 515.963L155.786 508.141L127.628 464.999L154.77 508.435L127.49 519.111C127.496 519.543 127.656 520.025 127.908 520.451L154.846 508.557L160.778 518.051C162.142 520.229 164.898 521.079 167.246 520.037L171.47 518.173L198.402 561.155C198.656 561.021 198.814 560.717 198.814 560.273V559.397L171.6 518.115L198.816 506.103Z" fill="black"/>
<path d="M186.768 514.542C186.768 513.686 186.168 512.646 185.426 512.218L116.776 472.584C116.034 472.156 114.834 472.156 114.092 472.584L112.58 473.458C111.838 473.886 111.238 474.926 111.238 475.782V528.404C111.238 529.256 111.842 530.302 112.58 530.728L181.23 570.362C181.968 570.788 183.176 570.788 183.914 570.362L185.426 569.488C186.164 569.062 186.768 568.016 186.768 567.164V514.542Z" fill="#F5F5F5"/>
<path d="M186.376 513.22L182.566 515.416L111.632 474.458C111.874 474.04 112.21 473.67 112.578 473.456L114.096 472.586C114.832 472.154 116.038 472.154 116.776 472.586L185.426 512.218C185.798 512.434 186.134 512.802 186.376 513.22Z" fill="#E0E0E0"/>
<path d="M182.256 570.65C182.336 570.67 182.416 570.67 182.516 570.67H182.436C182.356 570.67 182.316 570.67 182.256 570.65Z" fill="#F4D248"/>
<path d="M182.576 515.41L181.876 515.83C182.296 515.99 182.576 516.41 182.576 516.97V569.59C182.576 570.03 182.416 570.33 182.156 570.47C181.976 570.55 181.756 570.57 181.516 570.49C181.416 570.45 181.316 570.41 181.236 570.37L112.576 530.73C111.836 530.29 111.236 529.25 111.236 528.41V475.79C111.236 475.35 111.396 474.87 111.636 474.45L182.576 515.41Z" fill="#EBEBEB"/>
<path opacity="0.2" d="M182.568 515.416L150.776 527.294C148.51 528.138 145.964 527.3 144.644 525.276L139.538 517.453L111.378 474.312L138.52 517.747L111.238 528.424C111.244 528.856 111.404 529.337 111.656 529.763L138.594 517.87L144.526 527.364C145.89 529.542 148.646 530.391 150.994 529.349L155.218 527.486L182.15 570.468C182.404 570.334 182.562 570.03 182.562 569.586V568.71L155.348 527.427L182.568 515.416Z" fill="black"/>
<path d="M217.102 476.07C211.642 473.21 204.402 473.71 196.482 478.29C187.582 483.41 179.562 492.67 173.942 503.31C172.622 505.77 171.462 508.31 170.422 510.87C167.322 518.59 165.522 526.67 165.522 534.23V578.59C164.522 578.59 163.542 578.35 162.782 577.93L83.794 532.306C82.294 531.426 81.054 529.286 81.054 527.546V485.426C81.054 464.386 94.914 439.346 111.994 429.466C120.094 424.786 127.454 424.406 132.974 427.506L132.994 427.466L217.102 476.07Z" fill="#F4D248"/>
<path opacity="0.2" d="M217.102 476.07C211.642 473.21 204.402 473.71 196.482 478.29C187.582 483.41 179.562 492.67 173.942 503.31C172.622 505.77 171.462 508.31 170.422 510.87C167.322 518.59 165.522 526.67 165.522 534.23V578.59C164.522 578.59 163.542 578.35 162.782 577.93L83.794 532.306C82.294 531.426 81.054 529.286 81.054 527.546V485.426C81.054 464.386 94.914 439.346 111.994 429.466C120.094 424.786 127.454 424.406 132.974 427.506L132.994 427.466L217.102 476.07Z" fill="black"/>
<path opacity="0.1" d="M83.792 532.305L162.78 577.929C163.54 578.349 164.52 578.589 165.52 578.589V534.229C165.52 530.189 166.048 526.003 167 521.801L82.514 473.023C81.57 477.215 81.054 481.393 81.054 485.425V527.545C81.052 529.285 82.292 531.425 83.792 532.305Z" fill="black"/>
<path d="M170.422 510.87C167.322 518.59 165.522 526.67 165.522 534.23V578.59C165.182 578.59 164.842 578.55 164.522 578.49C164.502 575.93 164.482 561.69 164.482 534.23C164.482 501.59 189.582 480.85 196.482 478.29C187.582 483.41 179.562 492.67 173.942 503.31C172.622 505.77 171.462 508.31 170.422 510.87Z" fill="#F4D248"/>
<path opacity="0.4" d="M170.422 510.87C167.322 518.59 165.522 526.67 165.522 534.23V578.59C165.182 578.59 164.842 578.55 164.522 578.49C164.502 575.93 164.482 561.69 164.482 534.23C164.482 501.59 189.582 480.85 196.482 478.29C187.582 483.41 179.562 492.67 173.942 503.31C172.622 505.77 171.462 508.31 170.422 510.87Z" fill="black"/>
<path d="M169.526 573.534C169.07 573.798 168.702 573.584 168.702 573.058V534.232C168.702 527.464 170.264 519.954 173.21 512.476C173.26 512.336 173.318 512.19 173.374 512.05C174.478 509.288 175.736 506.616 177.132 504.058C182.604 493.938 190.088 485.63 198.068 481.04C202.168 478.666 206.054 477.466 209.61 477.466C211.858 477.466 213.896 477.968 215.686 478.92C221.082 481.796 224.236 488.766 224.236 498.504V540.992C224.236 541.518 223.866 542.158 223.412 542.42L224.662 545.366C224.758 545.308 224.852 545.252 224.942 545.188C225.354 544.902 225.742 544.522 226.078 544.09C226.084 544.09 226.084 544.084 226.084 544.078C226.884 543.068 227.41 541.754 227.41 540.606V498.504C227.41 487.236 223.43 479.396 217.106 476.076C211.634 473.206 204.41 473.708 196.48 478.292C187.586 483.408 179.568 492.664 173.932 503.31C172.63 505.766 171.456 508.3 170.428 510.87C167.33 518.59 165.528 526.664 165.528 534.232V578.58C165.686 578.58 165.846 578.574 166.004 578.56C166.836 578.502 167.642 578.288 168.276 577.918L169.526 573.534Z" fill="#F4D248"/>
<path opacity="0.1" d="M169.526 573.534C169.07 573.798 168.702 573.584 168.702 573.058V534.232C168.702 527.464 170.264 519.954 173.21 512.476C173.26 512.336 173.318 512.19 173.374 512.05C174.478 509.288 175.736 506.616 177.132 504.058C182.604 493.938 190.088 485.63 198.068 481.04C202.168 478.666 206.054 477.466 209.61 477.466C211.858 477.466 213.896 477.968 215.686 478.92C221.082 481.796 224.236 488.766 224.236 498.504V540.992C224.236 541.518 223.866 542.158 223.412 542.42L224.662 545.366C224.758 545.308 224.852 545.252 224.942 545.188C225.354 544.902 225.742 544.522 226.078 544.09C226.084 544.09 226.084 544.084 226.084 544.078C226.884 543.068 227.41 541.754 227.41 540.606V498.504C227.41 487.236 223.43 479.396 217.106 476.076C211.634 473.206 204.41 473.708 196.48 478.292C187.586 483.408 179.568 492.664 173.932 503.31C172.63 505.766 171.456 508.3 170.428 510.87C167.33 518.59 165.528 526.664 165.528 534.232V578.58C165.686 578.58 165.846 578.574 166.004 578.56C166.836 578.502 167.642 578.288 168.276 577.918L169.526 573.534Z" fill="black"/>
<path d="M357.88 459.753C357.88 456.439 360.206 452.409 363.076 450.753L619.424 302.761C622.294 301.105 626.946 301.103 629.816 302.761L635.672 306.143C638.542 307.799 640.868 311.829 640.868 315.143V518.899C640.868 522.199 638.53 526.249 635.672 527.899L379.324 675.889C376.466 677.539 371.79 677.539 368.932 675.889L363.076 672.509C360.218 670.859 357.88 666.809 357.88 663.509V459.753Z" fill="#F4D248"/>
<g opacity="0.5">
<path d="M357.88 459.753C357.88 456.439 360.206 452.409 363.076 450.753L619.424 302.761C622.294 301.105 626.946 301.103 629.816 302.761L635.672 306.143C638.542 307.799 640.868 311.829 640.868 315.143V518.899C640.868 522.199 638.53 526.249 635.672 527.899L379.324 675.889C376.466 677.539 371.79 677.539 368.932 675.889L363.076 672.509C360.218 670.859 357.88 666.809 357.88 663.509V459.753Z" fill="white"/>
</g>
<path d="M359.396 454.636L374.144 463.142L639.342 310.024C638.408 308.402 637.106 306.976 635.68 306.14L629.804 302.772C626.952 301.1 622.282 301.1 619.43 302.772L363.082 450.752C361.632 451.588 360.33 453.012 359.396 454.636Z" fill="#F4D248"/>
<path opacity="0.8" d="M359.396 454.636L374.144 463.142L639.342 310.024C638.408 308.402 637.106 306.976 635.68 306.14L629.804 302.772C626.952 301.1 622.282 301.1 619.43 302.772L363.082 450.752C361.632 451.588 360.33 453.012 359.396 454.636Z" fill="white"/>
<path opacity="0.1" d="M357.872 459.748V663.502C357.872 666.82 360.208 670.852 363.084 672.498L368.934 675.89C369.376 676.136 369.844 676.358 370.36 676.53C371.024 676.752 371.736 676.924 372.498 677.022C373.85 677.194 375.276 677.144 376.604 676.874C376.948 676.8 377.302 676.722 377.622 676.622C377.844 676.548 378.074 676.478 378.254 676.4C377.296 676.744 376.432 676.652 375.744 676.306C374.76 675.79 374.146 674.61 374.146 672.89V469.138C374.146 467 375.228 465.376 376.85 464.714L374.146 463.142L359.398 454.636C358.462 456.258 357.872 458.102 357.872 459.748Z" fill="#F4D248"/>
<path opacity="0.05" d="M357.872 459.748V663.502C357.872 666.82 360.208 670.852 363.084 672.498L368.934 675.89C369.376 676.136 369.844 676.358 370.36 676.53C371.024 676.752 371.736 676.924 372.498 677.022C373.85 677.194 375.276 677.144 376.604 676.874C376.948 676.8 377.302 676.722 377.622 676.622C377.844 676.548 378.074 676.478 378.254 676.4C377.296 676.744 376.432 676.652 375.744 676.306C374.76 675.79 374.146 674.61 374.146 672.89V469.138C374.146 467 375.228 465.376 376.85 464.714L374.146 463.142L359.398 454.636C358.462 456.258 357.872 458.102 357.872 459.748Z" fill="black"/>
<path opacity="0.2" d="M374.144 463.139L497.248 509.131C506.024 512.401 515.88 509.155 520.994 501.315L540.762 471.029L639.342 310.023L544.702 472.167L640.866 518.989C640.842 520.661 640.226 522.529 639.244 524.175L544.408 472.639L521.436 509.403C516.152 517.835 505.482 521.129 496.388 517.097L480.032 509.877L375.744 676.309C374.76 675.793 374.146 674.613 374.146 672.893V669.501L479.522 509.653L374.144 463.139Z" fill="#F4D248"/>
<path opacity="0.05" d="M374.144 463.139L497.248 509.131C506.024 512.401 515.88 509.155 520.994 501.315L540.762 471.029L639.342 310.023L544.702 472.167L640.866 518.989C640.842 520.661 640.226 522.529 639.244 524.175L544.408 472.639L521.436 509.403C516.152 517.835 505.482 521.129 496.388 517.097L480.032 509.877L375.744 676.309C374.76 675.793 374.146 674.613 374.146 672.893V669.501L479.522 509.653L374.144 463.139Z" fill="black"/>
<path d="M422.872 497.313C422.872 493.999 425.198 489.969 428.068 488.313L684.416 340.321C687.286 338.665 691.938 338.665 694.808 340.321L700.664 343.703C703.534 345.359 705.86 349.389 705.86 352.703V556.461C705.86 559.761 703.522 563.811 700.664 565.461L444.316 713.451C441.458 715.101 436.782 715.101 433.924 713.451L428.068 710.071C425.21 708.421 422.872 704.371 422.872 701.071V497.313Z" fill="#F4D248"/>
<g opacity="0.35">
<path d="M422.872 497.313C422.872 493.999 425.198 489.969 428.068 488.313L684.416 340.321C687.286 338.665 691.938 338.665 694.808 340.321L700.664 343.703C703.534 345.359 705.86 349.389 705.86 352.703V556.461C705.86 559.761 703.522 563.811 700.664 565.461L444.316 713.451C441.458 715.101 436.782 715.101 433.924 713.451L428.068 710.071C425.21 708.421 422.872 704.371 422.872 701.071V497.313Z" fill="white"/>
</g>
<path d="M424.388 492.195L439.136 500.701L704.334 347.583C703.4 345.961 702.098 344.535 700.672 343.699L694.796 340.331C691.944 338.659 687.274 338.659 684.422 340.331L428.074 488.311C426.626 489.147 425.322 490.573 424.388 492.195Z" fill="#F4D248"/>
<path opacity="0.6" d="M424.388 492.195L439.136 500.701L704.334 347.583C703.4 345.961 702.098 344.535 700.672 343.699L694.796 340.331C691.944 338.659 687.274 338.659 684.422 340.331L428.074 488.311C426.626 489.147 425.322 490.573 424.388 492.195Z" fill="white"/>
<path opacity="0.1" d="M422.864 497.309V701.063C422.864 704.381 425.2 708.413 428.076 710.059L433.926 713.451C434.368 713.697 434.836 713.919 435.352 714.091C436.016 714.313 436.728 714.485 437.49 714.583C438.842 714.755 440.268 714.705 441.596 714.435C441.94 714.361 442.284 714.263 442.604 714.165C442.826 714.091 443.022 714.017 443.218 713.919C442.26 714.263 441.424 714.213 440.736 713.869C439.752 713.353 439.138 712.173 439.138 710.453V506.699C439.138 504.561 440.22 502.939 441.842 502.275L439.138 500.703L424.39 492.197C423.454 493.819 422.864 495.661 422.864 497.309Z" fill="black"/>
<path opacity="0.4" d="M439.138 500.701L562.242 546.693C571.018 549.963 580.874 546.717 585.988 538.877L605.756 508.591L704.336 347.585L609.696 509.729L705.86 556.551C705.836 558.223 705.22 560.091 704.238 561.737L609.4 510.199L586.428 546.963C581.144 555.395 570.474 558.689 561.38 554.657L545.024 547.437L440.736 713.869C439.752 713.353 439.138 712.173 439.138 710.453V707.061L544.514 547.213L439.138 500.701Z" fill="#F4D248"/>
<path opacity="0.05" d="M439.138 500.701L562.242 546.693C571.018 549.963 580.874 546.717 585.988 538.877L605.756 508.591L704.336 347.585L609.696 509.729L705.86 556.551C705.836 558.223 705.22 560.091 704.238 561.737L609.4 510.199L586.428 546.963C581.144 555.395 570.474 558.689 561.38 554.657L545.024 547.437L440.736 713.869C439.752 713.353 439.138 712.173 439.138 710.453V707.061L544.514 547.213L439.138 500.701Z" fill="black"/>
<path d="M488.404 536.51L755.166 382.494L765.84 388.656C768.6 390.25 770.858 394.16 770.858 397.348V594.134C770.858 597.32 768.6 601.232 765.84 602.826L509.114 751.046C506.354 752.64 501.838 752.64 499.078 751.046L493.422 747.78C490.662 746.186 488.404 742.276 488.404 739.088V536.51Z" fill="#F4D248"/>
<path opacity="0.2" d="M488.404 536.51L755.166 382.494L765.84 388.656C768.6 390.25 770.858 394.16 770.858 397.348V594.134C770.858 597.32 768.6 601.232 765.84 602.826L509.114 751.046C506.354 752.64 501.838 752.64 499.078 751.046L493.422 747.78C490.662 746.186 488.404 742.276 488.404 739.088V536.51Z" fill="black"/>
<path d="M753.694 365.196L754.786 364.602L750.64 362.194V362.198C750.284 361.99 749.916 361.812 749.54 361.672L632.138 318.168C629.03 317.016 624.994 318.3 623.122 321.034L491.792 512.822C489.92 515.556 488.402 520.458 488.402 523.772C488.402 529.252 488.402 536.51 488.402 536.51L492.472 538.874L755.164 382.496V369.756C755.166 368.204 754.6 366.596 753.694 365.196Z" fill="#F4D248"/>
<path opacity="0.1" d="M628.558 321.964C628.038 322.364 627.578 322.864 627.198 323.404L495.858 515.184C494.898 516.604 494.018 518.604 493.418 520.664L489.338 518.304C489.638 517.304 489.998 516.324 490.398 515.404C490.418 515.364 490.418 515.343 490.438 515.323C490.618 514.923 490.798 514.544 490.998 514.164C491.038 514.104 491.058 514.044 491.098 513.984C491.318 513.564 491.558 513.163 491.798 512.823L623.118 321.044C623.318 320.744 623.538 320.503 623.778 320.243C623.998 320.023 624.238 319.804 624.478 319.604L628.558 321.964Z" fill="black"/>
<path opacity="0.35" d="M754.738 364.584C754.378 364.364 753.998 364.184 753.618 364.044L636.198 320.524C633.718 319.604 630.638 320.244 628.558 321.964L624.478 319.604C626.578 317.904 629.638 317.244 632.138 318.164L749.538 361.664C749.918 361.804 750.278 361.984 750.638 362.204L754.738 364.584Z" fill="white"/>
<path d="M491.092 513.976C491.318 513.56 491.552 513.172 491.792 512.822C491.552 513.172 491.318 513.562 491.092 513.976Z" fill="#F4D248"/>
<path d="M623.782 320.242C624.004 320.016 624.238 319.804 624.486 319.602C624.238 319.804 623.998 320.012 623.782 320.242Z" fill="#F4D248"/>
<path d="M489.332 518.308C489.632 517.304 489.996 516.314 490.398 515.398C489.994 516.316 489.634 517.302 489.332 518.308Z" fill="#F4D248"/>
<path d="M490.434 515.316C490.614 514.914 490.804 514.534 490.998 514.168C490.802 514.534 490.612 514.914 490.434 515.316Z" fill="#F4D248"/>
<path opacity="0.2" d="M490.398 515.398C490.41 515.372 490.42 515.342 490.432 515.316C490.422 515.342 490.41 515.372 490.398 515.398Z" fill="black"/>
<path opacity="0.2" d="M623.122 321.034C623.316 320.752 623.546 320.494 623.782 320.244C623.54 320.488 623.316 320.75 623.122 321.034Z" fill="black"/>
<path d="M627.192 323.398L495.864 515.186C493.992 517.92 492.474 522.822 492.474 526.136C492.474 531.618 492.474 538.872 492.474 538.872L759.24 384.846L759.238 372.12C759.238 368.806 756.72 365.186 753.612 364.036L636.21 320.532C633.1 319.38 629.064 320.664 627.192 323.398Z" fill="#F4D248"/>
<path opacity="0.05" d="M759.236 372.12C759.236 370.596 758.688 369.018 757.81 367.636L493.418 520.662C493.418 520.662 493.404 520.686 493.392 520.704C492.826 522.604 492.472 524.55 492.472 526.134C492.472 531.616 492.472 538.87 492.472 538.87L759.238 384.844L759.236 372.12Z" fill="black"/>
<path d="M747.842 318.062C747.842 316.692 747.364 315.726 746.59 315.268C745.806 314.804 739.232 311.02 738.448 310.568C737.664 310.116 736.582 310.182 735.388 310.872L516.578 437.196C514.186 438.576 512.248 441.934 512.248 444.696L512.25 706.742C512.25 708.122 512.734 709.092 513.516 709.544C514.3 709.998 520.858 713.782 521.642 714.236C522.426 714.688 523.508 714.624 524.704 713.932L743.514 587.608C745.906 586.228 747.844 582.87 747.844 580.108L747.842 318.062Z" fill="#F0F0F0"/>
<path d="M524.704 713.932L743.514 587.608C745.906 586.228 747.844 582.87 747.844 580.108L747.842 318.062C747.842 315.3 745.904 314.182 743.512 315.562L524.702 441.886C522.31 443.266 520.372 446.624 520.372 449.386L520.374 711.432C520.374 714.194 522.314 715.314 524.704 713.932Z" fill="#FAFAFA"/>
<path d="M664.932 465.927C664.7 469.029 664.154 471.933 663.296 474.649C662.434 477.365 661.384 479.803 660.144 481.967C658.904 484.131 657.526 485.995 656.016 487.551C654.504 489.111 652.98 490.279 651.446 491.065C648.706 492.467 646.604 492.971 645.144 492.583C643.682 492.195 642.594 491.515 641.88 490.545C641.408 491.571 640.912 492.613 640.386 493.661C639.86 494.715 639.202 495.757 638.41 496.791C637.618 497.825 636.638 498.835 635.472 499.825C634.306 500.815 632.87 501.745 631.17 502.613C629.142 503.651 627.328 504.009 625.73 503.687C624.134 503.367 622.786 502.429 621.696 500.869C620.602 499.309 619.802 497.191 619.292 494.509C618.78 491.831 618.6 488.647 618.748 484.963C618.896 481.281 619.328 477.783 620.052 474.471C620.776 471.161 621.726 468.141 622.91 465.423C624.092 462.699 625.516 460.323 627.182 458.295C628.846 456.267 630.694 454.733 632.724 453.693C634.97 452.545 636.62 452.191 637.678 452.629C638.732 453.073 639.59 453.871 640.242 455.025L640.286 453.943C640.322 453.063 640.57 452.193 641.032 451.327C641.498 450.461 642.032 449.873 642.634 449.565L646.91 447.379C647.51 447.071 648.022 447.123 648.436 447.541C648.846 447.957 649.036 448.607 649 449.485L647.978 475.067C647.9 476.989 648.268 478.257 649.076 478.861C649.884 479.467 650.836 479.491 651.932 478.931C653.028 478.369 653.996 477.345 654.834 475.857C655.67 474.371 656.196 472.315 656.408 469.697C656.604 467.479 656.748 465.189 656.842 462.825C656.936 460.463 656.942 458.285 656.862 456.285C656.708 452.051 656.178 448.517 655.272 445.687C654.364 442.855 653.034 440.809 651.288 439.547C649.538 438.283 647.3 437.801 644.58 438.093C641.854 438.389 638.602 439.501 634.82 441.437C631.64 443.065 628.762 445.185 626.19 447.795C623.616 450.405 621.378 453.355 619.472 456.641C617.57 459.931 616.002 463.495 614.776 467.337C613.548 471.185 612.694 475.111 612.212 479.123C612.06 480.221 611.938 481.635 611.842 483.371C611.746 485.107 611.66 486.915 611.584 488.795C611.508 490.679 611.45 492.495 611.408 494.241C611.364 495.989 611.376 497.393 611.442 498.457C611.616 502.133 612.188 505.293 613.156 507.933C614.124 510.577 615.466 512.619 617.18 514.051C618.896 515.489 620.986 516.223 623.456 516.255C625.926 516.287 628.75 515.489 631.93 513.861C634.178 512.713 636.13 511.555 637.788 510.395C639.444 509.233 640.9 508.053 642.158 506.865C643.414 505.671 644.49 504.513 645.398 503.383C646.3 502.253 647.124 501.147 647.866 500.061C648.494 499.115 648.99 498.411 649.36 497.945C649.728 497.483 650.212 497.097 650.816 496.787L656.9 493.673C657.502 493.367 658.024 493.393 658.468 493.755C658.908 494.115 659.082 494.833 658.984 495.901C658.958 496.541 658.744 497.241 658.338 497.997C657.12 500.267 655.748 502.655 654.224 505.161C652.7 507.663 650.898 510.115 648.816 512.515C646.732 514.915 644.278 517.269 641.446 519.581C638.614 521.891 635.28 524.031 631.444 525.993C626.674 528.433 622.522 529.553 618.986 529.365C615.45 529.173 612.502 527.975 610.15 525.767C607.792 523.559 605.994 520.517 604.754 516.641C603.512 512.769 602.826 508.389 602.7 503.515C602.69 502.423 602.71 500.943 602.756 499.073C602.802 497.209 602.868 495.253 602.95 493.209C603.032 491.167 603.122 489.219 603.224 487.363C603.322 485.505 603.422 484.041 603.518 482.975C603.99 477.873 605.018 472.661 606.6 467.339C608.182 462.021 610.304 456.955 612.966 452.139C615.626 447.327 618.824 442.925 622.556 438.939C626.282 434.955 630.534 431.741 635.304 429.301C640.896 426.441 645.596 425.015 649.408 425.027C653.22 425.037 656.304 426.125 658.662 428.291C661.016 430.461 662.722 433.553 663.77 437.563C664.818 441.577 665.4 446.139 665.518 451.257C665.544 453.285 665.502 455.677 665.392 458.441C665.278 461.219 665.126 463.709 664.932 465.927ZM627.378 480.549C627.22 484.473 627.62 487.249 628.576 488.879C629.53 490.509 630.964 490.833 632.886 489.851C634.912 488.815 636.478 486.975 637.578 484.335C638.674 481.693 639.306 478.373 639.466 474.367C639.624 470.445 639.236 467.641 638.31 465.957C637.384 464.275 635.904 463.955 633.878 464.989C631.956 465.971 630.436 467.827 629.308 470.561C628.176 473.297 627.534 476.627 627.378 480.549Z" fill="#F4D248"/>
<path d="M520.366 711.43C520.366 712.65 520.746 713.55 521.386 714.07C519.926 713.25 514.246 709.95 513.526 709.55C512.726 709.09 512.246 708.13 512.246 706.75V444.69C512.246 443.31 512.726 441.79 513.526 440.43L521.646 445.11C520.846 446.47 520.366 448.01 520.366 449.39V711.43Z" fill="#E0E0E0"/>
<path d="M764.09 596.758C764.01 596.898 763.932 597.018 763.812 597.158L652.646 561.908C643.916 558.03 633.694 561.188 628.622 569.304L509.78 745.936L505.386 748.474L505.346 748.494C504.014 749.234 502.82 749.334 501.946 748.874L624.168 566.804C629.24 558.69 639.48 555.532 648.21 559.39L764.09 596.758Z" fill="#F4D248"/>
<path opacity="0.4" d="M617.678 586.64L617.958 586.4L509.778 745.942L505.378 748.482L505.338 748.502C504.018 749.242 502.818 749.322 501.938 748.882L613.398 584.08L617.678 586.64Z" fill="white"/>
<path opacity="0.4" d="M764.098 596.764C764.018 596.904 763.938 597.024 763.818 597.164L652.638 561.902C643.918 558.022 633.698 561.182 628.618 569.302L624.218 566.742C629.298 558.662 639.498 555.542 648.218 559.382L764.098 596.764Z" fill="white"/>
<path d="M770.766 396.092H770.746C770.506 394.652 769.746 394.252 768.766 394.932C768.386 395.192 767.946 395.632 767.486 396.252L766.926 397.032L657.226 563.81L640.846 586.63C639.006 589.23 634.966 590.73 631.826 590.01L617.686 586.65L509.746 546.912C508.966 546.732 508.226 546.712 507.546 546.832C507.266 546.892 506.986 546.972 506.726 547.092L510.794 544.74L614.28 582.666L627.906 587.528C631.026 588.268 635.066 586.768 636.926 584.148L653.306 561.348L763.546 393.79C763.906 393.29 764.346 392.93 764.786 392.65L755.246 387.15L759.246 384.85L765.846 388.65C768.246 390.052 770.266 393.192 770.766 396.092Z" fill="#F4D248"/>
<path opacity="0.4" d="M657.218 563.8L640.838 586.62C638.998 589.22 634.958 590.72 631.818 590L617.678 586.64L617.958 586.4L618.638 585.32L627.898 587.52C631.018 588.26 635.058 586.76 636.918 584.14L653.138 561.58L657.218 563.8Z" fill="white"/>
<path opacity="0.1" d="M765.838 388.644L759.238 384.844L755.238 387.144L764.778 392.644C764.786 392.65 764.794 392.656 764.802 392.662L764.786 392.652C764.306 392.954 763.884 393.324 763.546 393.792L653.3 561.34L653.14 561.56V561.58L657.22 563.8L766.92 397.022L767.48 396.242C767.94 395.622 768.38 395.182 768.76 394.922C769.74 394.242 770.5 394.642 770.74 396.082H770.76C770.258 393.184 768.238 390.044 765.838 388.644Z" fill="black"/>
<path d="M511.938 550.104L488.402 536.51L488.404 739.09C488.404 742.278 490.662 746.188 493.422 747.782L499.078 751.048C501.838 752.642 506.356 752.642 509.114 751.048L511.938 749.418V550.104Z" fill="#F4D248"/>
<path opacity="0.15" d="M511.938 550.104L488.402 536.51L488.404 739.09C488.404 742.278 490.662 746.188 493.422 747.782L499.078 751.048C501.838 752.642 506.356 752.642 509.114 751.048L511.938 749.418V550.104Z" fill="black"/>
<path d="M770.866 397.352V594.132C770.866 595.792 770.266 597.612 769.306 599.212C768.506 600.532 767.506 601.712 766.366 602.512L766.166 602.612C766.046 602.692 765.966 602.772 765.846 602.832L509.126 751.032L509.086 751.052C507.746 751.812 506.546 751.912 505.666 751.452C504.886 751.052 504.346 750.232 504.166 749.052C504.126 748.772 504.106 748.472 504.106 748.152V551.352C504.106 548.172 506.606 546.172 509.746 546.912L617.686 586.65L631.826 590.01C634.966 590.73 639.006 589.23 640.846 586.63L657.226 563.81L766.926 397.032L767.486 396.252C769.346 393.672 770.866 394.152 770.866 397.352Z" fill="#F4D248"/>
<path d="M765.844 602.833C765.96 602.775 766.056 602.697 766.174 602.621L766.366 602.505C767.506 601.713 768.51 600.535 769.302 599.221C770.252 597.645 770.84 595.845 770.86 594.225L657.236 563.813L733.326 621.609L765.844 602.833Z" fill="#F4D248"/>
<path opacity="0.2" d="M765.844 602.833C765.96 602.775 766.056 602.697 766.174 602.621L766.366 602.505C767.506 601.713 768.51 600.535 769.302 599.221C770.252 597.645 770.84 595.845 770.86 594.225L657.236 563.813L733.326 621.609L765.844 602.833Z" fill="black"/>
<path d="M504.102 748.143C504.102 749.805 504.7 750.944 505.666 751.448C506.554 751.912 507.752 751.814 509.086 751.062L509.124 751.042L597.51 700.016L617.694 586.646L504.104 744.875L504.102 748.143Z" fill="#F4D248"/>
<path opacity="0.15" d="M628.578 569.28L505.658 751.442C504.698 750.942 504.098 749.802 504.098 748.142L504.106 744.872L624.178 566.8C624.178 566.78 624.198 566.76 624.218 566.74L628.578 569.28Z" fill="black"/>
<path d="M769.3 599.221C768.508 600.535 767.504 601.713 766.364 602.505L766.172 602.621L509.124 751.041L509.086 751.061C507.754 751.815 506.556 751.911 505.666 751.447L628.598 569.251C633.692 561.117 643.988 557.959 652.768 561.835L769.3 599.221Z" fill="#F4D248"/>
<path opacity="0.15" d="M489.338 518.304L493.418 520.664C492.838 522.584 492.478 524.544 492.478 526.144C492.478 531.624 492.478 538.864 492.478 538.864L488.398 536.504C488.398 536.504 488.398 529.244 488.398 523.764C488.398 522.184 488.758 520.224 489.338 518.304Z" fill="black"/>
<path d="M510.794 544.739L506.726 547.091L502.606 544.711L492.466 538.871L496.406 536.531L510.794 544.739Z" fill="#F4D248"/>
<path opacity="0.1" d="M510.974 544.815L496.404 536.531L492.464 538.871L502.604 544.711L506.724 547.091L506.766 547.067C507.012 546.959 507.274 546.879 507.536 546.823C508.216 546.703 508.956 546.723 509.736 546.903L517.938 549.929L612.162 584.617L613.636 582.431L510.974 544.815Z" fill="black"/>
<path d="M290.052 204.147L274.816 212.943C274.892 212.263 274.944 211.587 274.944 210.927V206.513C274.944 198.657 269.43 195.473 262.626 199.401C259.87 200.991 257.336 203.513 255.284 206.461C254.17 196.583 246.42 192.905 237.008 198.339C226.83 204.215 218.58 218.505 218.58 230.257V236.861C218.58 239.905 219.144 242.469 220.14 244.511L207.484 251.817C203.71 253.997 200.652 259.295 200.652 263.651C200.652 268.009 203.71 269.775 207.484 267.595L290.052 219.925C293.826 217.747 296.884 212.447 296.884 208.091C296.886 203.735 293.826 201.969 290.052 204.147Z" fill="#FDF5D3"/>
<path d="M216.284 153.915L197.526 164.745C197.618 163.907 197.684 163.075 197.684 162.263V156.829C197.684 147.159 190.896 143.239 182.52 148.075C179.128 150.033 176.008 153.135 173.482 156.765C172.11 144.605 162.57 140.075 150.984 146.765C138.454 153.999 128.298 171.591 128.298 186.059V194.189C128.298 197.937 128.992 201.093 130.218 203.607L114.638 212.601C109.992 215.283 106.226 221.805 106.226 227.169C106.226 232.533 109.992 234.707 114.638 232.025L216.284 173.341C220.93 170.659 224.696 164.135 224.696 158.771C224.696 153.407 220.93 151.233 216.284 153.915Z" fill="#FDF5D3"/>
<path d="M809.916 329.446L880.67 284.134L911.836 294.14L809.916 329.446Z" fill="#F4D248"/>
<path d="M809.916 329.446L871.068 278.448L857.478 262.756L809.916 329.446Z" fill="#F4D248"/>
<path d="M871.068 278.447V290.283L809.916 329.445L871.068 278.447Z" fill="#F4D248"/>
<path opacity="0.25" d="M871.068 278.447V290.283L809.916 329.445L871.068 278.447Z" fill="black"/>
<path d="M881.258 277.46C880.856 277.46 880.454 277.298 880.156 276.978C879.594 276.37 879.63 275.42 880.24 274.858C882.344 272.912 884.286 270.792 886.016 268.556C886.524 267.9 887.466 267.78 888.122 268.286C888.776 268.792 888.898 269.734 888.392 270.39C886.56 272.758 884.504 275.004 882.276 277.062C881.99 277.328 881.624 277.46 881.258 277.46ZM892.514 262.524C892.29 262.524 892.06 262.474 891.844 262.364C891.104 261.992 890.804 261.092 891.174 260.352C892.908 256.892 894.242 253.216 895.14 249.426C895.33 248.62 896.138 248.124 896.944 248.312C897.75 248.504 898.248 249.31 898.058 250.118C897.108 254.134 895.694 258.03 893.856 261.696C893.594 262.222 893.066 262.524 892.514 262.524ZM897.98 241.38C897.956 241.38 897.934 241.38 897.912 241.378C897.084 241.34 896.444 240.64 896.48 239.812C896.516 239.008 896.534 238.202 896.534 237.392C896.534 234.338 896.27 231.238 895.752 228.178C895.614 227.36 896.164 226.586 896.98 226.448C897.778 226.304 898.57 226.858 898.708 227.676C899.254 230.902 899.532 234.172 899.532 237.392C899.532 238.246 899.512 239.098 899.474 239.946C899.44 240.754 898.776 241.38 897.98 241.38ZM894.752 219.754C894.13 219.754 893.548 219.366 893.334 218.746C892.078 215.118 890.448 211.532 888.488 208.09C888.08 207.37 888.332 206.454 889.05 206.044C889.77 205.634 890.684 205.886 891.096 206.606C893.144 210.208 894.852 213.962 896.168 217.764C896.44 218.548 896.024 219.402 895.24 219.672C895.08 219.728 894.914 219.754 894.752 219.754ZM884.248 200.538C883.798 200.538 883.354 200.338 883.058 199.954C880.71 196.914 878.058 193.98 875.172 191.232C874.572 190.662 874.548 189.712 875.122 189.112C875.69 188.512 876.64 188.486 877.242 189.06C880.236 191.912 882.994 194.96 885.434 198.12C885.94 198.776 885.818 199.718 885.162 200.224C884.89 200.436 884.566 200.538 884.248 200.538ZM868.58 185.186C868.266 185.186 867.95 185.088 867.678 184.884C864.618 182.572 861.306 180.382 857.83 178.376C857.112 177.962 856.868 177.044 857.282 176.326C857.694 175.61 858.61 175.362 859.33 175.778C862.91 177.848 866.328 180.104 869.486 182.49C870.146 182.99 870.278 183.93 869.78 184.592C869.484 184.98 869.034 185.186 868.58 185.186ZM711.394 179.386C710.874 179.386 710.37 179.118 710.094 178.636C709.68 177.918 709.926 177.002 710.642 176.588C714.116 174.582 717.73 172.692 721.382 170.968C722.138 170.608 723.026 170.938 723.38 171.684C723.734 172.434 723.412 173.326 722.664 173.68C719.084 175.368 715.544 177.22 712.142 179.184C711.906 179.322 711.648 179.386 711.394 179.386ZM849.742 173.906C849.524 173.906 849.3 173.858 849.092 173.756C845.54 172.038 841.874 170.452 838.198 169.044C837.424 168.748 837.038 167.88 837.334 167.106C837.63 166.332 838.496 165.944 839.272 166.242C843.026 167.682 846.77 169.3 850.398 171.054C851.144 171.414 851.456 172.312 851.096 173.058C850.836 173.594 850.3 173.906 849.742 173.906ZM731.204 169.872C730.604 169.872 730.038 169.51 729.808 168.918C729.506 168.146 729.886 167.276 730.658 166.974C734.4 165.51 738.254 164.18 742.114 163.016C742.902 162.778 743.742 163.228 743.982 164.02C744.222 164.814 743.774 165.65 742.978 165.89C739.198 167.028 735.422 168.332 731.754 169.766C731.572 169.838 731.386 169.872 731.204 169.872ZM829.28 165.894C829.136 165.894 828.988 165.874 828.842 165.828C825.082 164.68 821.216 163.674 817.354 162.836C816.546 162.66 816.032 161.862 816.206 161.052C816.382 160.242 817.184 159.728 817.992 159.904C821.936 160.758 825.88 161.786 829.718 162.958C830.51 163.2 830.956 164.038 830.716 164.832C830.516 165.478 829.922 165.894 829.28 165.894ZM752.204 163.388C751.522 163.388 750.904 162.918 750.746 162.226C750.558 161.418 751.062 160.614 751.872 160.428C755.784 159.526 759.788 158.77 763.774 158.178C764.576 158.05 765.356 158.622 765.48 159.44C765.602 160.26 765.034 161.024 764.216 161.144C760.308 161.724 756.38 162.466 752.544 163.35C752.43 163.376 752.316 163.388 752.204 163.388ZM807.838 161.088C807.766 161.088 807.694 161.082 807.62 161.072C803.724 160.502 799.75 160.084 795.81 159.83C794.984 159.776 794.356 159.062 794.412 158.236C794.464 157.408 795.178 156.782 796.006 156.836C800.026 157.096 804.08 157.524 808.054 158.104C808.874 158.224 809.44 158.986 809.322 159.806C809.21 160.55 808.57 161.088 807.838 161.088ZM773.924 160.02C773.15 160.02 772.494 159.426 772.432 158.642C772.364 157.816 772.978 157.092 773.804 157.024C777.82 156.696 781.894 156.526 785.912 156.518H785.914C786.74 156.518 787.412 157.188 787.414 158.014C787.416 158.842 786.746 159.514 785.916 159.518C781.978 159.526 777.986 159.692 774.048 160.014C774.008 160.018 773.966 160.02 773.924 160.02Z" fill="#E0E0E0"/>
</svg>
